<svg xmlns="http://www.w3.org/2000/svg" viewBox="0 0 24 24" fill="#fff"><path d="M23.994 6.124a9.23 9.23 0 0 0-.24-2.19c-.317-1.31-1.062-2.31-2.18-3.043a5.022 5.022 0 0 0-1.877-.726 10.496 10.496 0 0 0-1.564-.15c-.04-.003-.083-.01-.124-.013H5.986c-.152.01-.303.017-.455.026-.747.043-1.49.123-2.193.4-1.336.53-2.3 1.452-2.865 2.78-.192.448-.292.925-.363 1.408-.056.392-.088.785-.1 1.18 0 .032-.007.062-.01.093v12.223c.01.14.017.283.027.424.05.815.154 1.624.497 2.373.65 1.42 1.738 2.353 3.234 2.802.42.127.856.187 1.293.228.555.053 1.11.06 1.667.06h11.03c.525 0 1.048-.034 1.57-.1.823-.106 1.597-.35 2.296-.81a5.046 5.046 0 0 0 1.88-2.207c.186-.42.293-.87.37-1.324.113-.675.138-1.358.137-2.04-.002-3.8 0-7.595-.003-11.393zm-6.423 3.99v5.712c0 .417-.058.827-.244 1.206-.29.59-.76.962-1.388 1.14-.35.1-.706.166-1.068.192-.652.047-1.234-.058-1.72-.49-.328-.292-.515-.664-.556-1.1-.07-.748.315-1.47 1.08-1.778.298-.12.605-.195.91-.282.377-.107.757-.206 1.125-.34.278-.1.47-.296.518-.604.013-.08.02-.163.02-.244V9.63c0-.158-.046-.26-.207-.293-.37-.078-.74-.158-1.11-.236l-3.576-.754c-.065-.014-.13-.023-.196-.036-.142-.024-.24.04-.273.18-.013.063-.02.13-.02.194v7.87c0 .33-.037.656-.158.968-.222.57-.634.97-1.2 1.188-.37.14-.755.22-1.146.26-.593.06-1.157.003-1.66-.337-.433-.293-.677-.693-.727-1.206-.07-.72.24-1.32.844-1.662.36-.206.754-.313 1.158-.396.253-.05.507-.097.76-.148.358-.074.612-.262.718-.623.057-.194.08-.396.08-.6V6.97c0-.3.06-.478.348-.544.207-.048.417-.09.627-.132l2.596-.544 2.924-.614c.2-.042.397-.09.598-.12.12-.018.195.053.213.18.006.052.01.103.01.155v5.763z"/></svg>
