<svg xmlns="http://www.w3.org/2000/svg" width="1456.609" height="639.518" viewBox="0 0 385.394 169.206"><defs><clipPath id="b" clipPathUnits="userSpaceOnUse"><path d="M-601.578 340.394h1124v-720h-1124Z"/></clipPath><clipPath id="d" clipPathUnits="userSpaceOnUse"><path d="M-659.268 285.993h1124v-720h-1124Z"/></clipPath><clipPath id="f" clipPathUnits="userSpaceOnUse"><path d="M-724.073 276.362h1124v-720h-1124Z"/></clipPath><clipPath id="h" clipPathUnits="userSpaceOnUse"><path d="M-902.928 301.454h1124v-720h-1124Z"/></clipPath><clipPath id="j" clipPathUnits="userSpaceOnUse"><path d="M-842.574 237.067h1124v-720h-1124Z"/></clipPath><clipPath id="l" clipPathUnits="userSpaceOnUse"><path d="M-872.477 299.023h1124v-720h-1124Z"/></clipPath><clipPath id="n" clipPathUnits="userSpaceOnUse"><path d="M-867.932 231.768h1124v-720h-1124Z"/></clipPath><clipPath id="p" clipPathUnits="userSpaceOnUse"><path d="M-827.2 300.462h1124v-720h-1124Z"/></clipPath><clipPath id="r" clipPathUnits="userSpaceOnUse"><path d="M-848.776 299.203h1124v-720h-1124Z"/></clipPath><clipPath id="t" clipPathUnits="userSpaceOnUse"><path d="M-335.377 246.672h1124v-720h-1124Z"/></clipPath><clipPath id="v" clipPathUnits="userSpaceOnUse"><path d="M-417.59 340.77h1124v-720h-1124Z"/></clipPath><clipPath id="x" clipPathUnits="userSpaceOnUse"><path d="M-543.559 245.574h1124v-720h-1124Z"/></clipPath><clipPath id="z" clipPathUnits="userSpaceOnUse"><path d="M-236.375 326.006h1124v-720h-1124Z"/></clipPath><clipPath id="B" clipPathUnits="userSpaceOnUse"><path d="M-492.447 258.427h1124v-720h-1124Z"/></clipPath><clipPath id="D" clipPathUnits="userSpaceOnUse"><path d="M-301.95 259.538h1124v-720h-1124Z"/></clipPath><clipPath id="F" clipPathUnits="userSpaceOnUse"><path d="M-397.013 425.003h1124v-720h-1124Z"/></clipPath><clipPath id="H" clipPathUnits="userSpaceOnUse"><path d="M-476.444 382.987h1124v-720h-1124Z"/></clipPath><clipPath id="J" clipPathUnits="userSpaceOnUse"><path d="M-292.373 479.452h1124v-720h-1124Z"/></clipPath><clipPath id="L" clipPathUnits="userSpaceOnUse"><path d="M-499.193 359.76h1124v-720h-1124Z"/></clipPath><clipPath id="N" clipPathUnits="userSpaceOnUse"><path d="M-579.527 376.646h1124v-720h-1124Z"/></clipPath><filter id="a" width="125.852" height="138.145" x="-62.426" y="-68.572" style="color-interpolation-filters:sRGB"><feGaussianBlur stdDeviation="3.714"/></filter><filter id="c" width="1.183" height="1.226" x="-.091" y="-.113" style="color-interpolation-filters:sRGB"><feGaussianBlur stdDeviation="3.714"/></filter><filter id="e" width="1.196" height="1.254" x="-.098" y="-.127" style="color-interpolation-filters:sRGB"><feGaussianBlur stdDeviation="3.714"/></filter><filter id="g" width="1.14" height="1.193" x="-.07" y="-.096" style="color-interpolation-filters:sRGB"><feGaussianBlur stdDeviation="3.714"/></filter><filter id="i" width="1.842" height="1.921" x="-.421" y="-.461" style="color-interpolation-filters:sRGB"><feGaussianBlur stdDeviation="3.714"/></filter><filter id="k" width="1.896" height="1.901" x="-.448" y="-.451" style="color-interpolation-filters:sRGB"><feGaussianBlur stdDeviation="3.714"/></filter><filter id="m" width="1.875" height="1.987" x="-.438" y="-.494" style="color-interpolation-filters:sRGB"><feGaussianBlur stdDeviation="3.714"/></filter><filter id="o" width="1.936" height="1.969" x="-.468" y="-.484" style="color-interpolation-filters:sRGB"><feGaussianBlur stdDeviation="3.714"/></filter><filter id="q" width="1.916" height="1.972" x="-.458" y="-.486" style="color-interpolation-filters:sRGB"><feGaussianBlur stdDeviation="3.714"/></filter><filter id="s" width="1.201" height="1.139" x="-.101" y="-.07" style="color-interpolation-filters:sRGB"><feGaussianBlur stdDeviation="3.714"/></filter><filter id="u" width="1.198" height="1.167" x="-.099" y="-.084" style="color-interpolation-filters:sRGB"><feGaussianBlur stdDeviation="3.714"/></filter><filter id="w" width="1.218" height="1.286" x="-.109" y="-.143" style="color-interpolation-filters:sRGB"><feGaussianBlur stdDeviation="3.714"/></filter><filter id="y" width="1.2" height="1.152" x="-.1" y="-.076" style="color-interpolation-filters:sRGB"><feGaussianBlur stdDeviation="3.714"/></filter><filter id="A" width="1.29" height="1.233" x="-.145" y="-.116" style="color-interpolation-filters:sRGB"><feGaussianBlur stdDeviation="3.714"/></filter><filter id="C" width="1.262" height="1.142" x="-.131" y="-.071" style="color-interpolation-filters:sRGB"><feGaussianBlur stdDeviation="3.714"/></filter><filter id="E" width="1.2" height="1.119" x="-.1" y="-.06" style="color-interpolation-filters:sRGB"><feGaussianBlur stdDeviation="3.714"/></filter><filter id="G" width="1.225" height="1.115" x="-.112" y="-.058" style="color-interpolation-filters:sRGB"><feGaussianBlur stdDeviation="3.714"/></filter><filter id="I" width="1.181" height="1.135" x="-.091" y="-.068" style="color-interpolation-filters:sRGB"><feGaussianBlur stdDeviation="3.714"/></filter><filter id="K" width="1.557" height="1.175" x="-.278" y="-.088" style="color-interpolation-filters:sRGB"><feGaussianBlur stdDeviation="3.714"/></filter><filter id="M" width="1.15" height="1.112" x="-.075" y="-.056" style="color-interpolation-filters:sRGB"><feGaussianBlur stdDeviation="3.714"/></filter></defs><path d="m0 0-.008.13C-.178.049-.2 0 0 0" clip-path="url(#b)" style="opacity:.99;fill:#000;fill-opacity:1;fill-rule:nonzero;stroke:none;filter:url(#a)" transform="matrix(.54913 0 0 -.54509 214.43 73.916)"/><path d="m0 0-.008.13C-.178.049-.2 0 0 0" clip-path="url(#b)" style="opacity:.99;fill:#e21717;fill-opacity:1;fill-rule:nonzero;stroke:none" transform="matrix(.54913 0 0 -.54509 214.43 73.916)"/><path d="M0 0c-1.199-.729-2.561-1.037-3.954-1.248-7.113-1.134-33.11-7.671-36.708-8.158l-1.276 12.165c1.718.632 26.128 6.383 35.964 7.923.73.113 1.638.258 2.659.226 1.977-.065 4.246-.551 5.493-2.236 1.28-1.75 1.177-1.752 1.225-3.859C3.437 2.577 1.783 1.069 0 0m20.057 24.749C2.17 22.552-16.85 20.661-24.194 19.734c-23.085-2.928-41.171-4.694-45.515-5.011.879-1.806 1.732-3.66 2.489-5.613 4.637-11.738 7.046-28.119 8.291-44.884.373-5.049 1.16-17.242 1.232-18.496 2.876 1.375 55.737 13.752 69.536 17.253l.488.122c1.001.245 1.977.489 2.807.83.39.147.757.317 1.073.513 4.979 3.074 8.298 8.76 9.493 14.788l.049.195c.195 1.025.088 5.668.161 6.57L-.902-18.332C-2.294-24.75-6.49-28.606-13.445-29.85c-1.834-.353-10.939-1.976-17.948-3.374a6.273 6.273 0 0 0-7.453 5.39l-1.094 8.888S19.87-8.496 24.141-7.764c2.123.342 2.367 1.537 2.464 2.075 1.708 8.614 1.733 15.617.025 22.084-1.122 4.295-3.449 7.865-6.573 8.354" clip-path="url(#d)" style="opacity:.99;fill:#000;fill-opacity:1;fill-rule:nonzero;stroke:none;filter:url(#c)" transform="matrix(.54913 0 0 -.54509 246.11 44.263)"/><path d="M0 0c-1.199-.729-2.561-1.037-3.954-1.248-7.113-1.134-33.11-7.671-36.708-8.158l-1.276 12.165c1.718.632 26.128 6.383 35.964 7.923.73.113 1.638.258 2.659.226 1.977-.065 4.246-.551 5.493-2.236 1.28-1.75 1.177-1.752 1.225-3.859C3.437 2.577 1.783 1.069 0 0m20.057 24.749C2.17 22.552-16.85 20.661-24.194 19.734c-23.085-2.928-41.171-4.694-45.515-5.011.879-1.806 1.732-3.66 2.489-5.613 4.637-11.738 7.046-28.119 8.291-44.884.373-5.049 1.16-17.242 1.232-18.496 2.876 1.375 55.737 13.752 69.536 17.253l.488.122c1.001.245 1.977.489 2.807.83.39.147.757.317 1.073.513 4.979 3.074 8.298 8.76 9.493 14.788l.049.195c.195 1.025.088 5.668.161 6.57L-.902-18.332C-2.294-24.75-6.49-28.606-13.445-29.85c-1.834-.353-10.939-1.976-17.948-3.374a6.273 6.273 0 0 0-7.453 5.39l-1.094 8.888S19.87-8.496 24.141-7.764c2.123.342 2.367 1.537 2.464 2.075 1.708 8.614 1.733 15.617.025 22.084-1.122 4.295-3.449 7.865-6.573 8.354" clip-path="url(#d)" style="opacity:.99;fill:red;fill-opacity:1;fill-rule:nonzero;stroke:none" transform="matrix(.54913 0 0 -.54509 246.11 44.263)"/><path d="M0 0c-4.781-1.491-8.807-1.12-8.646 4.19C-6.555 8.373-5.259 8.616.203 9.821c6.428 1.419 13.331 1.46 19.87 2.219 11.052 1.282 26.396 1.251 35.198-2.052.866 6.109 1.087 13.51-2.131 18.256-17.737-2.189-46.858-6.621-64.682-8.855l-.042-.004c-2.697-.232-5.327-1.081-7.561-2.613-6.588-4.519-11.711-10.233-12.499-18.09-.633-6.336 4.36-11.691 10.711-12.137 10.167-.714 23.97 3.573 32.99 5.434 5.639 1.247 19.944 5.615 20.889-.058.845-5.068-4.643-6.966-10.056-8.165-19.43-4.716-36.203-6.147-53.257-3.057-.438-4.635-4.471-18.052-4.827-22.687 22.188 5.499 51.903 12.153 74.012 17.538 4.785 1.165 8.698 6.348 9.446 11.215.641 4.178 1.161 8.545 1.388 11.923C49.733 15.557 10.938 1.896 0 0" clip-path="url(#f)" style="opacity:.99;fill:#000;fill-opacity:1;fill-rule:nonzero;stroke:none;filter:url(#e)" transform="matrix(.54913 0 0 -.54509 281.697 39.013)"/><path d="M0 0c-4.781-1.491-8.807-1.12-8.646 4.19C-6.555 8.373-5.259 8.616.203 9.821c6.428 1.419 13.331 1.46 19.87 2.219 11.052 1.282 26.396 1.251 35.198-2.052.866 6.109 1.087 13.51-2.131 18.256-17.737-2.189-46.858-6.621-64.682-8.855l-.042-.004c-2.697-.232-5.327-1.081-7.561-2.613-6.588-4.519-11.711-10.233-12.499-18.09-.633-6.336 4.36-11.691 10.711-12.137 10.167-.714 23.97 3.573 32.99 5.434 5.639 1.247 19.944 5.615 20.889-.058.845-5.068-4.643-6.966-10.056-8.165-19.43-4.716-36.203-6.147-53.257-3.057-.438-4.635-4.471-18.052-4.827-22.687 22.188 5.499 51.903 12.153 74.012 17.538 4.785 1.165 8.698 6.348 9.446 11.215.641 4.178 1.161 8.545 1.388 11.923C49.733 15.557 10.938 1.896 0 0" clip-path="url(#f)" style="opacity:.99;fill:red;fill-opacity:1;fill-rule:nonzero;stroke:none" transform="matrix(.54913 0 0 -.54509 281.697 39.013)"/><path d="M0 0c-1.167 2.449-2.233 4.953-3.525 7.334-1.626 2.997-1.382 6.135-.952 9.283.444 3.246 1.19 6.452 1.587 9.702.756 6.184-1.453 12.264-8.338 15.051-7.004 2.837-14.201 4.701-21.683 5.234-10.202.726-20.397-.049-30.582-.739-6.667-.451-13.339-.842-20.014-1.116-1.294-.053-2.66.434-3.909.896-1.106.409-1.493 1.335-.785 2.641 2.757 1.572 5.952 2.342 9.105 3.188 8.809 2.361 17.875 2.74 26.905 3.361 13.394.921 26.408-1.264 39.224-4.933 4.438-1.27 8.839-2.665 13.275-4.009.677 3.517.604 3.817-1.174 6.096-4.111 5.266-7.954 10.751-13.398 14.844-1.725 1.297-2.391 3.27-1.549 5.491.68 1.795 1.387 3.583 1.967 5.411.16.508-.092 1.146-.183 2.001-.716-.36-1.144-.494-1.476-.753-12.225-9.487-26.408-13.754-41.536-15.038-6.643-.564-13.383-.298-20.059.011-3.046.141-6.249.198-9.412 1.541 1.064 1.008 1.935 1.89 2.866 2.704 1.447 1.268 3.037 2.39 4.387 3.752 4.634 4.669 3.199 10.492-3.187 12.736-.871-.254-1.889-.439-2.804-.851-1.004-.451-1.914-1.111-2.747-1.61-1.201.709-2.192 1.585-3.341 1.914-3.239.929-6.394-1.511-6.572-5.008-.192-3.759 1.378-6.81 4.111-9.287 1.423-1.289 2.938-2.478 4.411-3.713-2.953.251-5.63 1.112-8.367 1.682-2.745.573-5.429 1.991-8.515 1.161l2.661-5.777c-1.373-3.568-3.932-5.683-6.295-7.963-1.627-1.571-3.276-3.129-4.799-4.799-3.461-3.794-4.39-8.404-3.704-13.309.583-4.169 2.483-7.329 7.018-8.581 5.81-1.602 11.627-3.083 17.673-2.969 8.043.151 16.081.543 24.119.897 3.393.15 6.793.337 10.162.737 7.63.906 15.17.058 22.673-1.102 2.627-.406 5.28-1.245 7.281-3.254-.275-1.489-1.115-2.314-2.42-2.626-1.205-.289-2.439-.666-3.657-.659-4.532.028-9.063.203-13.595.31-2.38.056-4.77.25-7.137.098-7.682-.495-15.349-1.225-23.033-1.671-10.303-.599-20.319.849-29.945 4.703-2.483.994-5.009 1.885-7.432 2.793l-9.959-22.831c1.655.2 2.85.802 4.073 1.264 3.321 1.254 6.728 1.915 10.301 1.817 3.976-.109 6.978-1.842 8.909-5.253.995-1.76 1.682-3.698 2.461-5.574.382-.92.659-1.883 1.051-3.023.699.388 1.175.645 1.643.913 7.513 4.291 15.427 7.647 23.788 9.846 7.89 2.077 15.901 3.335 24.083 3.861 8.215.527 16.277-.131 24.339-1.447 7.733-1.262 15.153-3.653 22.514-6.257 1.331-.472 2.707-.817 4.569-1.371C.551-1.154.275-.577 0 0" clip-path="url(#h)" style="opacity:.99;fill:#000;fill-opacity:1;fill-rule:nonzero;stroke:none;filter:url(#g)" transform="matrix(.54913 0 0 -.54509 379.91 52.69)"/><path d="M0 0c-1.167 2.449-2.233 4.953-3.525 7.334-1.626 2.997-1.382 6.135-.952 9.283.444 3.246 1.19 6.452 1.587 9.702.756 6.184-1.453 12.264-8.338 15.051-7.004 2.837-14.201 4.701-21.683 5.234-10.202.726-20.397-.049-30.582-.739-6.667-.451-13.339-.842-20.014-1.116-1.294-.053-2.66.434-3.909.896-1.106.409-1.493 1.335-.785 2.641 2.757 1.572 5.952 2.342 9.105 3.188 8.809 2.361 17.875 2.74 26.905 3.361 13.394.921 26.408-1.264 39.224-4.933 4.438-1.27 8.839-2.665 13.275-4.009.677 3.517.604 3.817-1.174 6.096-4.111 5.266-7.954 10.751-13.398 14.844-1.725 1.297-2.391 3.27-1.549 5.491.68 1.795 1.387 3.583 1.967 5.411.16.508-.092 1.146-.183 2.001-.716-.36-1.144-.494-1.476-.753-12.225-9.487-26.408-13.754-41.536-15.038-6.643-.564-13.383-.298-20.059.011-3.046.141-6.249.198-9.412 1.541 1.064 1.008 1.935 1.89 2.866 2.704 1.447 1.268 3.037 2.39 4.387 3.752 4.634 4.669 3.199 10.492-3.187 12.736-.871-.254-1.889-.439-2.804-.851-1.004-.451-1.914-1.111-2.747-1.61-1.201.709-2.192 1.585-3.341 1.914-3.239.929-6.394-1.511-6.572-5.008-.192-3.759 1.378-6.81 4.111-9.287 1.423-1.289 2.938-2.478 4.411-3.713-2.953.251-5.63 1.112-8.367 1.682-2.745.573-5.429 1.991-8.515 1.161l2.661-5.777c-1.373-3.568-3.932-5.683-6.295-7.963-1.627-1.571-3.276-3.129-4.799-4.799-3.461-3.794-4.39-8.404-3.704-13.309.583-4.169 2.483-7.329 7.018-8.581 5.81-1.602 11.627-3.083 17.673-2.969 8.043.151 16.081.543 24.119.897 3.393.15 6.793.337 10.162.737 7.63.906 15.17.058 22.673-1.102 2.627-.406 5.28-1.245 7.281-3.254-.275-1.489-1.115-2.314-2.42-2.626-1.205-.289-2.439-.666-3.657-.659-4.532.028-9.063.203-13.595.31-2.38.056-4.77.25-7.137.098-7.682-.495-15.349-1.225-23.033-1.671-10.303-.599-20.319.849-29.945 4.703-2.483.994-5.009 1.885-7.432 2.793l-9.959-22.831c1.655.2 2.85.802 4.073 1.264 3.321 1.254 6.728 1.915 10.301 1.817 3.976-.109 6.978-1.842 8.909-5.253.995-1.76 1.682-3.698 2.461-5.574.382-.92.659-1.883 1.051-3.023.699.388 1.175.645 1.643.913 7.513 4.291 15.427 7.647 23.788 9.846 7.89 2.077 15.901 3.335 24.083 3.861 8.215.527 16.277-.131 24.339-1.447 7.733-1.262 15.153-3.653 22.514-6.257 1.331-.472 2.707-.817 4.569-1.371C.551-1.154.275-.577 0 0" clip-path="url(#h)" style="opacity:.99;fill:red;fill-opacity:1;fill-rule:nonzero;stroke:none" transform="matrix(.54913 0 0 -.54509 379.91 52.69)"/><path d="M0 0c2.701 2.518 5.302 4.846 7.776 7.299.945.937 1.751 2.086 2.365 3.271 1.421 2.752.797 6.096-1.281 7.738-2.018 1.595-4.942 1.346-7.471-.638-.427-.335-.851-.674-1.29-1.024-.604.524-1.08 1.016-1.632 1.402-3.242 2.272-6.445 1.327-7.979-2.306-1.313-3.108-.875-5.995 1.192-8.587C-5.978 4.218-2.906 2.117 0 0" clip-path="url(#j)" style="opacity:.99;fill:#000;fill-opacity:1;fill-rule:nonzero;stroke:none;filter:url(#i)" transform="matrix(.54913 0 0 -.54509 346.769 17.594)"/><path d="M0 0c2.701 2.518 5.302 4.846 7.776 7.299.945.937 1.751 2.086 2.365 3.271 1.421 2.752.797 6.096-1.281 7.738-2.018 1.595-4.942 1.346-7.471-.638-.427-.335-.851-.674-1.29-1.024-.604.524-1.08 1.016-1.632 1.402-3.242 2.272-6.445 1.327-7.979-2.306-1.313-3.108-.875-5.995 1.192-8.587C-5.978 4.218-2.906 2.117 0 0" clip-path="url(#j)" style="opacity:.99;fill:red;fill-opacity:1;fill-rule:nonzero;stroke:none" transform="matrix(.54913 0 0 -.54509 346.769 17.594)"/><path d="M0 0c-2.317-2.422-4.644-4.588-6.631-7.03-1.181-1.45-2.035-3.261-2.662-5.041-.718-2.039.458-4.692 2.248-5.965 1.931-1.372 3.671-1.293 5.892.271.363.257.724.518 1.071.765 4.152-3.862 6.865-3.704 9.976.43 1.224 3.845.061 7.003-2.596 9.667C4.996-4.595 2.565-2.417 0 0" clip-path="url(#l)" style="opacity:.99;fill:#000;fill-opacity:1;fill-rule:nonzero;stroke:none;filter:url(#k)" transform="matrix(.54913 0 0 -.54509 363.189 51.365)"/><path d="M0 0c-2.317-2.422-4.644-4.588-6.631-7.03-1.181-1.45-2.035-3.261-2.662-5.041-.718-2.039.458-4.692 2.248-5.965 1.931-1.372 3.671-1.293 5.892.271.363.257.724.518 1.071.765 4.152-3.862 6.865-3.704 9.976.43 1.224 3.845.061 7.003-2.596 9.667C4.996-4.595 2.565-2.417 0 0" clip-path="url(#l)" style="opacity:.99;fill:red;fill-opacity:1;fill-rule:nonzero;stroke:none" transform="matrix(.54913 0 0 -.54509 363.189 51.365)"/><path d="M0 0c2.593 2.242 5.234 4.35 7.646 6.693a10.7 10.7 0 0 1 2.524 3.932c1.408 3.938-1.77 8.123-5.609 7.344-1.375-.279-2.558-1.514-4.028-2.44-.218.194-.67.678-1.198 1.055-3.174 2.266-6.323 1.51-8.194-1.943-1.532-2.828-1.319-5.307.765-7.837C-5.847 4.078-2.989 2.069 0 0" clip-path="url(#n)" style="opacity:.99;fill:#000;fill-opacity:1;fill-rule:nonzero;stroke:none;filter:url(#m)" transform="matrix(.54913 0 0 -.54509 360.693 14.705)"/><path d="M0 0c2.593 2.242 5.234 4.35 7.646 6.693a10.7 10.7 0 0 1 2.524 3.932c1.408 3.938-1.77 8.123-5.609 7.344-1.375-.279-2.558-1.514-4.028-2.44-.218.194-.67.678-1.198 1.055-3.174 2.266-6.323 1.51-8.194-1.943-1.532-2.828-1.319-5.307.765-7.837C-5.847 4.078-2.989 2.069 0 0" clip-path="url(#n)" style="opacity:.99;fill:red;fill-opacity:1;fill-rule:nonzero;stroke:none" transform="matrix(.54913 0 0 -.54509 360.693 14.705)"/><path d="M0 0c-2.406-2.082-4.7-4.079-7.008-6.058-1.633-1.4-2.428-3.289-2.904-5.28-.804-3.358 1.474-6.63 4.712-7.017 2.092-.25 3.785.447 4.846 1.86 1.992-.379 3.454-1.028 4.8-.841 3.653.509 5.342 3.815 4.136 7.424C7.089-5.438 3.514-2.844 0 0" clip-path="url(#p)" style="opacity:.99;fill:#000;fill-opacity:1;fill-rule:nonzero;stroke:none;filter:url(#o)" transform="matrix(.54913 0 0 -.54509 338.326 52.15)"/><path d="M0 0c-2.406-2.082-4.7-4.079-7.008-6.058-1.633-1.4-2.428-3.289-2.904-5.28-.804-3.358 1.474-6.63 4.712-7.017 2.092-.25 3.785.447 4.846 1.86 1.992-.379 3.454-1.028 4.8-.841 3.653.509 5.342 3.815 4.136 7.424C7.089-5.438 3.514-2.844 0 0" clip-path="url(#p)" style="opacity:.99;fill:red;fill-opacity:1;fill-rule:nonzero;stroke:none" transform="matrix(.54913 0 0 -.54509 338.326 52.15)"/><path d="M0 0c-2.371-2.137-4.854-4.255-7.193-6.52-2.045-1.978-3.12-4.425-2.774-7.352.307-2.597 2.144-4.209 4.754-4.451 2.15-.199 3.596 1.019 4.962 2.265.858-.481 1.51-.96 2.238-1.233 2.628-.987 4.956-.157 6.468 2.228 1.508 2.376 1.305 4.667-.891 7.111C5.15-5.266 2.591-2.711 0 0" clip-path="url(#r)" style="opacity:.99;fill:#000;fill-opacity:1;fill-rule:nonzero;stroke:none;filter:url(#q)" transform="matrix(.54913 0 0 -.54509 350.175 51.463)"/><path d="M0 0c-2.371-2.137-4.854-4.255-7.193-6.52-2.045-1.978-3.12-4.425-2.774-7.352.307-2.597 2.144-4.209 4.754-4.451 2.15-.199 3.596 1.019 4.962 2.265.858-.481 1.51-.96 2.238-1.233 2.628-.987 4.956-.157 6.468 2.228 1.508 2.376 1.305 4.667-.891 7.111C5.15-5.266 2.591-2.711 0 0" clip-path="url(#r)" style="opacity:.99;fill:red;fill-opacity:1;fill-rule:nonzero;stroke:none" transform="matrix(.54913 0 0 -.54509 350.175 51.463)"/><path d="M0 0c5.662-7.199 10.323-16.399 13.934-27.453 4.027-10.86 9.469-27.747 10.103-41.315.562-12.42-1.146-25.378-2.684-34.09a21.629 21.629 0 0 0-2.806-7.419 610.743 610.743 0 0 1 17.911 3.978c3.978 26.648-3.343 71.061-3.343 71.061s21.719-38.801 29.528-64.448a838.64 838.64 0 0 1 13.08 3.66c.756 36.312-12.812 79.213-35.14 110.302l-.659.146c-6.052 1.489-12.519 2.587-19.401 3.051 15.813-14.447 27.844-48.611 28.21-49.734-.805 1.172-25.403 36.287-37.824 50.026a108.431 108.431 0 0 1-23.696-2.855C-8.248 11.128-3.782 4.783 0 0" clip-path="url(#t)" style="opacity:.99;fill:#000;fill-opacity:1;fill-rule:nonzero;stroke:none;filter:url(#s)" transform="matrix(.54913 0 0 -.54509 68.252 22.83)"/><path d="M0 0c5.662-7.199 10.323-16.399 13.934-27.453 4.027-10.86 9.469-27.747 10.103-41.315.562-12.42-1.146-25.378-2.684-34.09a21.629 21.629 0 0 0-2.806-7.419 610.743 610.743 0 0 1 17.911 3.978c3.978 26.648-3.343 71.061-3.343 71.061s21.719-38.801 29.528-64.448a838.64 838.64 0 0 1 13.08 3.66c.756 36.312-12.812 79.213-35.14 110.302l-.659.146c-6.052 1.489-12.519 2.587-19.401 3.051 15.813-14.447 27.844-48.611 28.21-49.734-.805 1.172-25.403 36.287-37.824 50.026a108.431 108.431 0 0 1-23.696-2.855C-8.248 11.128-3.782 4.783 0 0" clip-path="url(#t)" style="opacity:.99;fill:#fff;fill-opacity:1;fill-rule:nonzero;stroke:none" transform="matrix(.54913 0 0 -.54509 68.252 22.83)"/><path d="M0 0a546.111 546.111 0 0 1 14.691 4.612c.146 7.053-3.27 19.864-4.368 26.331 9.907-12.275 25.745-16.741 35.872-15.228.025 0 .025.025.049.025 2.904 1.098 5.759 2.196 8.541 3.343l-3.538 10.615c-21.622-1.171-33.506 14.74-38.997 21.035 5.028 6.418 7.37 18.327 9.177 26.673-3.49 2.416-7.444 5.198-12.056 8.126C6.15 76.283 3.319 70.744.854 67.45c-2.586 12.469-5.832 20.888-11.688 29.332-.22.097-.439.219-.66.317 0 0-.585.293-1.708.781-6.393 2.929-14.69 6.442-22.255 8.809 8.712-12.127 24.232-37.238 28.723-58.201C-5.1 40.777-.415 10.811 0 0" clip-path="url(#v)" style="opacity:.99;fill:#000;fill-opacity:1;fill-rule:nonzero;stroke:none;filter:url(#u)" transform="matrix(.54913 0 0 -.54509 113.398 74.12)"/><path d="M0 0a546.111 546.111 0 0 1 14.691 4.612c.146 7.053-3.27 19.864-4.368 26.331 9.907-12.275 25.745-16.741 35.872-15.228.025 0 .025.025.049.025 2.904 1.098 5.759 2.196 8.541 3.343l-3.538 10.615c-21.622-1.171-33.506 14.74-38.997 21.035 5.028 6.418 7.37 18.327 9.177 26.673-3.49 2.416-7.444 5.198-12.056 8.126C6.15 76.283 3.319 70.744.854 67.45c-2.586 12.469-5.832 20.888-11.688 29.332-.22.097-.439.219-.66.317 0 0-.585.293-1.708.781-6.393 2.929-14.69 6.442-22.255 8.809 8.712-12.127 24.232-37.238 28.723-58.201C-5.1 40.777-.415 10.811 0 0" clip-path="url(#v)" style="opacity:.99;fill:#fff;fill-opacity:1;fill-rule:nonzero;stroke:none" transform="matrix(.54913 0 0 -.54509 113.398 74.12)"/><path d="m0 0-17.131-8.126-5.832 15.618C-18.742 8.395 6.149 5.808 0 0m-32.651-5.222c4.002-10.445 16.521-43.413 16.521-43.413 5.636 5.222 11.542 9.737 17.667 13.519 10.957 8.639 25.672 13.641 36.776 16.399.073.171.146.342.219.537-4.003 4.173-9.638 9.492-17.179 15.179l-8.2-4.93c5.686-6.613 2.319-9.59-3.88-13.373-.049 0-.122-.073-.171-.097-.219-.098-.341-.171-.341-.171l.049-.025c-5.784-3.416-11.641-6.051-15.228-8.394l-5.906 13.568 27.991 14.52c.805.365 1.366 1.025 1.732 1.83a166.333 166.333 0 0 1-10.493 6.93C-14.642 17.473-30.723 14.3-43.34 6.638c3.734-2.197 8.444-5.979 10.689-11.86" clip-path="url(#x)" style="opacity:.99;fill:#000;fill-opacity:1;fill-rule:nonzero;stroke:none;filter:url(#w)" transform="matrix(.54913 0 0 -.54509 182.57 22.23)"/><path d="m0 0-17.131-8.126-5.832 15.618C-18.742 8.395 6.149 5.808 0 0m-32.651-5.222c4.002-10.445 16.521-43.413 16.521-43.413 5.636 5.222 11.542 9.737 17.667 13.519 10.957 8.639 25.672 13.641 36.776 16.399.073.171.146.342.219.537-4.003 4.173-9.638 9.492-17.179 15.179l-8.2-4.93c5.686-6.613 2.319-9.59-3.88-13.373-.049 0-.122-.073-.171-.097-.219-.098-.341-.171-.341-.171l.049-.025c-5.784-3.416-11.641-6.051-15.228-8.394l-5.906 13.568 27.991 14.52c.805.365 1.366 1.025 1.732 1.83a166.333 166.333 0 0 1-10.493 6.93C-14.642 17.473-30.723 14.3-43.34 6.638c3.734-2.197 8.444-5.979 10.689-11.86" clip-path="url(#x)" style="opacity:.99;fill:#fff;fill-opacity:1;fill-rule:nonzero;stroke:none" transform="matrix(.54913 0 0 -.54509 182.57 22.23)"/><path d="M0 0c1.854-9.957 1.928-13.275 6.637-25.208 2.563-6.467 4.344-15.179 4.93-18.352.073-.195.122-.415.195-.61 6.076.147 12.225.44 18.448.855-1.903 25.623 1.977 45.218 1.977 45.218l.024-.049c0-.024.025-.097.049-.195.049-.171.073-.317.122-.463.049-.22.122-.415.171-.611.073-.292.171-.609.269-.976 2.122-7.442 9.394-27.746 22.695-40.655 5.71.659 11.444 1.391 17.228 2.221a21.74 21.74 0 0 0-2.514 2.465C57.737-21.963 48.464-.732 42.656 26.746c-3.197 15.105-2.367 32.65-1.098 44.706.048.39.097.805.171 1.195-5.516-4.368-11.982-10.102-17.083-15.52-1.928-5.588-3.147-13.202-5.271-24.452v-.073c-2.171-11.542-1.122-25.696-2.538-44.926-.561 1.098-1.097 2.197-1.659 3.246-.024 0-.024.024-.024.073C7.882 6.613 7.955 25.916 8.907 37.556-8.883 11.298-15.936-17.18-16.375-43.95c5.223-.22 10.518-.365 15.911-.39C-4.002-18.864 0 0 0 0" clip-path="url(#z)" style="opacity:.99;fill:#000;fill-opacity:1;fill-rule:nonzero;stroke:none;filter:url(#y)" transform="matrix(.54913 0 0 -.54509 13.887 66.073)"/><path d="M0 0c1.854-9.957 1.928-13.275 6.637-25.208 2.563-6.467 4.344-15.179 4.93-18.352.073-.195.122-.415.195-.61 6.076.147 12.225.44 18.448.855-1.903 25.623 1.977 45.218 1.977 45.218l.024-.049c0-.024.025-.097.049-.195.049-.171.073-.317.122-.463.049-.22.122-.415.171-.611.073-.292.171-.609.269-.976 2.122-7.442 9.394-27.746 22.695-40.655 5.71.659 11.444 1.391 17.228 2.221a21.74 21.74 0 0 0-2.514 2.465C57.737-21.963 48.464-.732 42.656 26.746c-3.197 15.105-2.367 32.65-1.098 44.706.048.39.097.805.171 1.195-5.516-4.368-11.982-10.102-17.083-15.52-1.928-5.588-3.147-13.202-5.271-24.452v-.073c-2.171-11.542-1.122-25.696-2.538-44.926-.561 1.098-1.097 2.197-1.659 3.246-.024 0-.024.024-.024.073C7.882 6.613 7.955 25.916 8.907 37.556-8.883 11.298-15.936-17.18-16.375-43.95c5.223-.22 10.518-.365 15.911-.39C-4.002-18.864 0 0 0 0" clip-path="url(#z)" style="opacity:.99;fill:#fff;fill-opacity:1;fill-rule:nonzero;stroke:none" transform="matrix(.54913 0 0 -.54509 13.887 66.073)"/><path d="M0 0c.367.367.777.583 1.209.583.216 0 1.296-.022 1.662-1.295l2.756-8.804c.28-.928-.13-1.986-.907-2.483l-18.091-10.798-3.147 7.527C-14.079-12.852-2.762-2.979 0 0m-25.05-31.072c.025-.097.049-.195.098-.293.463-1.415.975-2.879 1.439-4.441 1.562-5.076 6.565-19.596 7.833-25.672C.598-54.767 14.971-47.813 26.733-40.955c1.757 1.976 2.416 5.027 1.391 7.736l-6.662 14.934-11.47-7.687 2.612-5.686c.464-1.512-.049-3.27-1.318-4.124C9.382-37.1-6.113-45.836-6.113-45.836L-9.82-31.404l21.328 12.665c4.588 2.684 6.808 8.712 5.198 14.105L11.408 7.851c-1.488 5.003-5.637 7.662-9.859 7.321C-11.604 4.971-20.608-9.061-28.54-12.892a14.085 14.085 0 0 0-4.343-1.342c.951-1.537 2.026-3.563 3.074-5.978.976-2.465 3.612-7.517 4.759-10.86" clip-path="url(#B)" style="opacity:.99;fill:#000;fill-opacity:1;fill-rule:nonzero;stroke:none;filter:url(#A)" transform="matrix(.54913 0 0 -.54509 154.504 29.237)"/><path d="M0 0c.367.367.777.583 1.209.583.216 0 1.296-.022 1.662-1.295l2.756-8.804c.28-.928-.13-1.986-.907-2.483l-18.091-10.798-3.147 7.527C-14.079-12.852-2.762-2.979 0 0m-25.05-31.072c.025-.097.049-.195.098-.293.463-1.415.975-2.879 1.439-4.441 1.562-5.076 6.565-19.596 7.833-25.672C.598-54.767 14.971-47.813 26.733-40.955c1.757 1.976 2.416 5.027 1.391 7.736l-6.662 14.934-11.47-7.687 2.612-5.686c.464-1.512-.049-3.27-1.318-4.124C9.382-37.1-6.113-45.836-6.113-45.836L-9.82-31.404l21.328 12.665c4.588 2.684 6.808 8.712 5.198 14.105L11.408 7.851c-1.488 5.003-5.637 7.662-9.859 7.321C-11.604 4.971-20.608-9.061-28.54-12.892a14.085 14.085 0 0 0-4.343-1.342c.951-1.537 2.026-3.563 3.074-5.978.976-2.465 3.612-7.517 4.759-10.86" clip-path="url(#B)" style="opacity:.99;fill:#fff;fill-opacity:1;fill-rule:nonzero;stroke:none" transform="matrix(.54913 0 0 -.54509 154.504 29.237)"/><path d="M0 0c.063.7.496 1.309 1.127 1.618 1.958.96 3.886 1.85 5.769 2.664a2.024 2.024 0 0 0 2.371-.578 96.899 96.899 0 0 0 3.537-4.603c5.055-7.003 8.96-14.767 11.935-22.875 3.645-9.937 7.894-23.598 8.345-33.269.409-8.813-.651-18.301-1.804-25.547a2.019 2.019 0 0 0-1.662-1.666l-6.369-1.115a2.038 2.038 0 0 0-1.964.736C12.519-73.449 5.514-56.265.953-34.684-1.481-23.178-.806-8.85 0 0m10.186-98.02c3.296-3.796 8.395-5.509 13.348-4.643l12.249 2.143c6.025 1.055 10.72 5.773 11.787 11.796 1.483 8.373 3.123 20.758 2.577 32.474-.944 20.285-13.879 49.7-13.879 49.7-4.527 8.695-9.886 16.748-16.269 24.006-4.05 4.605-10.534 6.281-16.234 4.019-4.121-1.636-8.38-3.58-12.776-5.831-4.348-2.227-7.229-6.551-7.737-11.41-1.041-9.952-2.136-27.674.988-42.451 4.094-19.369 11.744-43.444 25.946-59.803" clip-path="url(#D)" style="opacity:.99;fill:#000;fill-opacity:1;fill-rule:nonzero;stroke:none;filter:url(#C)" transform="matrix(.54913 0 0 -.54509 49.896 29.842)"/><path d="M0 0c.063.7.496 1.309 1.127 1.618 1.958.96 3.886 1.85 5.769 2.664a2.024 2.024 0 0 0 2.371-.578 96.899 96.899 0 0 0 3.537-4.603c5.055-7.003 8.96-14.767 11.935-22.875 3.645-9.937 7.894-23.598 8.345-33.269.409-8.813-.651-18.301-1.804-25.547a2.019 2.019 0 0 0-1.662-1.666l-6.369-1.115a2.038 2.038 0 0 0-1.964.736C12.519-73.449 5.514-56.265.953-34.684-1.481-23.178-.806-8.85 0 0m10.186-98.02c3.296-3.796 8.395-5.509 13.348-4.643l12.249 2.143c6.025 1.055 10.72 5.773 11.787 11.796 1.483 8.373 3.123 20.758 2.577 32.474-.944 20.285-13.879 49.7-13.879 49.7-4.527 8.695-9.886 16.748-16.269 24.006-4.05 4.605-10.534 6.281-16.234 4.019-4.121-1.636-8.38-3.58-12.776-5.831-4.348-2.227-7.229-6.551-7.737-11.41-1.041-9.952-2.136-27.674.988-42.451 4.094-19.369 11.744-43.444 25.946-59.803" clip-path="url(#D)" style="opacity:.99;fill:#fff;fill-opacity:1;fill-rule:nonzero;stroke:none" transform="matrix(.54913 0 0 -.54509 49.896 29.842)"/><path d="M0 0c-3.024 23.776-6.744 47.098-10.927 68.38-6.298-1.699-12.628-3.441-18.927-4.951C-26.543 41.15-12.33-38.761-12.33-38.761c.443-6.08-2.87-11.724-8.018-13.638l-16.573-5.589c-4.906-1.831-8.877 1.982-11.592 6.909-3.135 5.657-4.342 12.734-6.009 24.547-.28 3.304-7.366 62.972-10.08 83.113-5.753-1.061-13.206-2.342-18.79-3.157 2.647-24.749 7.038-57.845 10.188-85.117 0 0 4.948-39.581 20.877-46.46 24.315-9.374 49.763 7.209 55.872 16.735C9.642-51.912.025-.003.025-.003z" clip-path="url(#F)" style="opacity:.99;fill:#000;fill-opacity:1;fill-rule:nonzero;stroke:none;filter:url(#E)" transform="matrix(.54913 0 0 -.54509 102.098 120.035)"/><path d="M0 0c-3.024 23.776-6.744 47.098-10.927 68.38-6.298-1.699-12.628-3.441-18.927-4.951C-26.543 41.15-12.33-38.761-12.33-38.761c.443-6.08-2.87-11.724-8.018-13.638l-16.573-5.589c-4.906-1.831-8.877 1.982-11.592 6.909-3.135 5.657-4.342 12.734-6.009 24.547-.28 3.304-7.366 62.972-10.08 83.113-5.753-1.061-13.206-2.342-18.79-3.157 2.647-24.749 7.038-57.845 10.188-85.117 0 0 4.948-39.581 20.877-46.46 24.315-9.374 49.763 7.209 55.872 16.735C9.642-51.912.025-.003.025-.003z" clip-path="url(#F)" style="opacity:.99;fill:red;fill-opacity:1;fill-rule:nonzero;stroke:none" transform="matrix(.54913 0 0 -.54509 102.098 120.035)"/><path d="M0 0c-.903 3.807-2.026 7.102-5.905 8.712-2.806 1.171-6.003.927-8.907.317C-26.331 6.589-35.408-1.22-45.585-6.516c-5.002-3.318-15.471-8.614-16.228 7.736C-60.568 18.277-52.93 21.45-47 23.524c10.566 3.661 29.356 9.762 41.363-3.562-.268 5.49-4.124 22.28-7.419 30.503l-40.607-14.031c-9.37-3.075-16.959-10.787-20.839-19.743-2.344-5.441-3.222-11.517-3.515-17.399 0-.122-.024-.244 0-.391-.121-3.611.538-8.297 2.026-12.714v-.048c1.83-5.442 4.881-10.493 9.176-12.641 8.931-4.466 19.839.391 27.868 4.686 5.49 2.928 13.568 9.688 20.352 7.784 3.343-.927 4.417-4.367 4.661-7.491.536-6.54-5.027-12.788-9.029-17.278-7.687-8.638-16.985-14.007-26.868-19.669a198.001 198.001 0 0 1-13.982-8.858c-.366-.269-2.563-1.513-4.027-2.587 1.44-13.323 1.976-26.916-.488-34.407 8.296 6.564 16.325 13.494 24.232 20.547 15.52 13.763 33.993 29.844 41.022 50.368C.731-22.256 2.757-12.177.122-.586A4.884 4.884 0 0 1 0 0" clip-path="url(#H)" style="opacity:.99;fill:#000;fill-opacity:1;fill-rule:nonzero;stroke:none;filter:url(#G)" transform="matrix(.54913 0 0 -.54509 145.716 97.133)"/><path d="M0 0c-.903 3.807-2.026 7.102-5.905 8.712-2.806 1.171-6.003.927-8.907.317C-26.331 6.589-35.408-1.22-45.585-6.516c-5.002-3.318-15.471-8.614-16.228 7.736C-60.568 18.277-52.93 21.45-47 23.524c10.566 3.661 29.356 9.762 41.363-3.562-.268 5.49-4.124 22.28-7.419 30.503l-40.607-14.031c-9.37-3.075-16.959-10.787-20.839-19.743-2.344-5.441-3.222-11.517-3.515-17.399 0-.122-.024-.244 0-.391-.121-3.611.538-8.297 2.026-12.714v-.048c1.83-5.442 4.881-10.493 9.176-12.641 8.931-4.466 19.839.391 27.868 4.686 5.49 2.928 13.568 9.688 20.352 7.784 3.343-.927 4.417-4.367 4.661-7.491.536-6.54-5.027-12.788-9.029-17.278-7.687-8.638-16.985-14.007-26.868-19.669a198.001 198.001 0 0 1-13.982-8.858c-.366-.269-2.563-1.513-4.027-2.587 1.44-13.323 1.976-26.916-.488-34.407 8.296 6.564 16.325 13.494 24.232 20.547 15.52 13.763 33.993 29.844 41.022 50.368C.731-22.256 2.757-12.177.122-.586A4.884 4.884 0 0 1 0 0" clip-path="url(#H)" style="opacity:.99;fill:red;fill-opacity:1;fill-rule:nonzero;stroke:none" transform="matrix(.54913 0 0 -.54509 145.716 97.133)"/><path d="M0 0c-7.468 4.759-13.104 11.738-19.425 17.985 0 0 .269.048.733.195 2.928.805 12.958 4.417 22.06 7.492.487-1.415.683-3.1 1.049-4.417.879-3.367 7.516-18.644 7.735-27.258C7.931-4.417 3.832-2.465 0 0m-46.809 86.922c9.429-2.115 23.235-.918 37.804.855 1.806-4.954 3.222-13.495 3.027-20.01 0-3.783-1.611-7.296-4.345-9.59-4.978-4.173-14.006-10.615-26.012-14.715-3.467 10.469-8.473 35.065-10.474 43.46m73.505-75.574c-.268 1.952-.61 3.855-.975 5.758v.074c-1.123 5.734-2.685 11.225-4.612 16.349a.897.897 0 0 0-.097.22c-2.173 5.735-6.931 8.956-12.544 8.565L-8.15 41.217l9.98 5.417c7.688 4.173 13.056 13.348 13.228 22.353l.072 3.636c.17 9.078-1.196 17.668-4.27 25.013a1.171 1.171 0 0 1-.147.366c-1.195 2.782-3.099 4.93-5.417 6.271-.342.22-.684.391-1.049.562-15.252-1.537-33.599-3.091-54.515-3.091-6.906-.39-13.411-.268-19.464 0l.074-1.391c1.83-38.508 11.677-75.243 26.684-91.543C-35.725.562-26.306-7.321-15.788-13.373c10.127-5.783 22.792-10.566 36.481-13.47 1.197.488 2.222 1.025 2.953 1.611 3.734 2.976 4.808 8.882 4.881 14.91.098 4.734-.439 9.565-.804 13.104-.245 2.489-.587 5.295-1.027 8.566" clip-path="url(#J)" style="opacity:.99;fill:#000;fill-opacity:1;fill-rule:nonzero;stroke:none;filter:url(#I)" transform="matrix(.54913 0 0 -.54509 44.637 149.715)"/><path d="M0 0c-7.468 4.759-13.104 11.738-19.425 17.985 0 0 .269.048.733.195 2.928.805 12.958 4.417 22.06 7.492.487-1.415.683-3.1 1.049-4.417.879-3.367 7.516-18.644 7.735-27.258C7.931-4.417 3.832-2.465 0 0m-46.809 86.922c9.429-2.115 23.235-.918 37.804.855 1.806-4.954 3.222-13.495 3.027-20.01 0-3.783-1.611-7.296-4.345-9.59-4.978-4.173-14.006-10.615-26.012-14.715-3.467 10.469-8.473 35.065-10.474 43.46m73.505-75.574c-.268 1.952-.61 3.855-.975 5.758v.074c-1.123 5.734-2.685 11.225-4.612 16.349a.897.897 0 0 0-.097.22c-2.173 5.735-6.931 8.956-12.544 8.565L-8.15 41.217l9.98 5.417c7.688 4.173 13.056 13.348 13.228 22.353l.072 3.636c.17 9.078-1.196 17.668-4.27 25.013a1.171 1.171 0 0 1-.147.366c-1.195 2.782-3.099 4.93-5.417 6.271-.342.22-.684.391-1.049.562-15.252-1.537-33.599-3.091-54.515-3.091-6.906-.39-13.411-.268-19.464 0l.074-1.391c1.83-38.508 11.677-75.243 26.684-91.543C-35.725.562-26.306-7.321-15.788-13.373c10.127-5.783 22.792-10.566 36.481-13.47 1.197.488 2.222 1.025 2.953 1.611 3.734 2.976 4.808 8.882 4.881 14.91.098 4.734-.439 9.565-.804 13.104-.245 2.489-.587 5.295-1.027 8.566" clip-path="url(#J)" style="opacity:.99;fill:red;fill-opacity:1;fill-rule:nonzero;stroke:none" transform="matrix(.54913 0 0 -.54509 44.637 149.715)"/><path d="M0 0c-2.172 11.665-6.906 23.061-10.787 34.262a96.254 96.254 0 0 1-.804 2.245 425.381 425.381 0 0 0-8.054-3.417l-8.15-3.367-.025.097c-.439-.17-.853-.341-1.293-.512C-17.497 4.905-14.788-32.554-15.35-57.42c3.612-.342 8.2-1.415 11.884-4.368 1.806-1.44 2.172-1.928 5.809-3.563-.073 11.713.804 23.403.488 35.14C2.562-20.108 1.854-9.956 0 0" clip-path="url(#L)" style="opacity:.99;fill:#000;fill-opacity:1;fill-rule:nonzero;stroke:none;filter:url(#K)" transform="matrix(.54913 0 0 -.54509 158.209 84.472)"/><path d="M0 0c-2.172 11.665-6.906 23.061-10.787 34.262a96.254 96.254 0 0 1-.804 2.245 425.381 425.381 0 0 0-8.054-3.417l-8.15-3.367-.025.097c-.439-.17-.853-.341-1.293-.512C-17.497 4.905-14.788-32.554-15.35-57.42c3.612-.342 8.2-1.415 11.884-4.368 1.806-1.44 2.172-1.928 5.809-3.563-.073 11.713.804 23.403.488 35.14C2.562-20.108 1.854-9.956 0 0" clip-path="url(#L)" style="opacity:.99;fill:red;fill-opacity:1;fill-rule:nonzero;stroke:none" transform="matrix(.54913 0 0 -.54509 158.209 84.472)"/><path d="M0 0c-.024.024-.024.049-.024.049C-8.15 14.69 10.737 29.771 10.737 29.771s1.733 7.224-.414 23.378c-.025.196-.025.391-.074.586a19.457 19.457 0 0 1-.22 1.611s-.049-.025-.072-.025C7.175 77.187.195 97.832-1.854 103.615c-6.663-1.952-14.251-4.783-21.036-8.712l.635-2.147c2.587-6.492 8.81-24.452 10.078-49.758.489-9.517-5.742-39.936-5.742-39.936-.021.015-3.58 3.185-4.19 3.625a162.25 162.25 0 0 0-7.857 6.271 2.932 2.932 0 0 0-.318.269c-13.494 11.566-27.673 27.965-38.825 50.904a365.072 365.072 0 0 0-16.838-8.102 124.781 124.781 0 0 1 3.051-6.15c.463-1.317.927-2.61 1.39-3.928 3.246-8.908 6.589-18.132 8.371-27.746 1.683-9.005 2.611-18.962 2.952-31.334.171-6.735-.024-13.471-.219-19.986-.147-5.027-.293-10.249-.268-15.301l.024-2.928c8.125-4.051 15.813-3.758 15.813-3.758 3.929 19.108 1.854 50.978.732 64.278C-40.802-5.152-23.224-19.33-.919-28.203c11.916-4.739 25.649-1.053 33.029 9.435.472.671.712 1.076.712 1.076-7.59.537-13.519 2.196-18.106 4.295C3.563-8.321.269-.659 0 0" clip-path="url(#N)" style="opacity:.99;fill:#000;fill-opacity:1;fill-rule:nonzero;stroke:none;filter:url(#M)" transform="matrix(.54913 0 0 -.54509 202.322 93.677)"/><path d="M0 0c-.024.024-.024.049-.024.049C-8.15 14.69 10.737 29.771 10.737 29.771s1.733 7.224-.414 23.378c-.025.196-.025.391-.074.586a19.457 19.457 0 0 1-.22 1.611s-.049-.025-.072-.025C7.175 77.187.195 97.832-1.854 103.615c-6.663-1.952-14.251-4.783-21.036-8.712l.635-2.147c2.587-6.492 8.81-24.452 10.078-49.758.489-9.517-5.742-39.936-5.742-39.936-.021.015-3.58 3.185-4.19 3.625a162.25 162.25 0 0 0-7.857 6.271 2.932 2.932 0 0 0-.318.269c-13.494 11.566-27.673 27.965-38.825 50.904a365.072 365.072 0 0 0-16.838-8.102 124.781 124.781 0 0 1 3.051-6.15c.463-1.317.927-2.61 1.39-3.928 3.246-8.908 6.589-18.132 8.371-27.746 1.683-9.005 2.611-18.962 2.952-31.334.171-6.735-.024-13.471-.219-19.986-.147-5.027-.293-10.249-.268-15.301l.024-2.928c8.125-4.051 15.813-3.758 15.813-3.758 3.929 19.108 1.854 50.978.732 64.278C-40.802-5.152-23.224-19.33-.919-28.203c11.916-4.739 25.649-1.053 33.029 9.435.472.671.712 1.076.712 1.076-7.59.537-13.519 2.196-18.106 4.295C3.563-8.321.269-.659 0 0" clip-path="url(#N)" style="opacity:.99;fill:red;fill-opacity:1;fill-rule:nonzero;stroke:none" transform="matrix(.54913 0 0 -.54509 202.322 93.677)"/></svg>