<?xml version="1.0" encoding="UTF-8" standalone="no"?>
<!-- Created with Inkscape (http://www.inkscape.org/) -->

<svg
   width="385.39444mm"
   height="169.20572mm"
   viewBox="0 0 385.39444 169.20572"
   version="1.1"
   id="svg1"
   inkscape:export-filename="white and red with transparent background.png"
   inkscape:export-xdpi="96"
   inkscape:export-ydpi="96"
   inkscape:version="1.4 (1:1.4+202410161351+e7c3feb100)"
   sodipodi:docname="White with transparent background.svg"
   xmlns:inkscape="http://www.inkscape.org/namespaces/inkscape"
   xmlns:sodipodi="http://sodipodi.sourceforge.net/DTD/sodipodi-0.dtd"
   xmlns="http://www.w3.org/2000/svg"
   xmlns:svg="http://www.w3.org/2000/svg">
  <sodipodi:namedview
     id="namedview1"
     pagecolor="#ffffff"
     bordercolor="#000000"
     borderopacity="0.25"
     inkscape:showpageshadow="2"
     inkscape:pageopacity="0.0"
     inkscape:pagecheckerboard="0"
     inkscape:deskcolor="#d1d1d1"
     inkscape:document-units="mm"
     inkscape:zoom="0.94746032"
     inkscape:cx="396.32267"
     inkscape:cy="397.90585"
     inkscape:window-width="1268"
     inkscape:window-height="619"
     inkscape:window-x="1284"
     inkscape:window-y="704"
     inkscape:window-maximized="0"
     inkscape:current-layer="layer1">
    <inkscape:page
       x="0"
       y="-2.1101981e-14"
       width="385.39444"
       height="169.2057"
       id="page2"
       margin="0"
       bleed="0" />
  </sodipodi:namedview>
  <defs
     id="defs1">
    <clipPath
       clipPathUnits="userSpaceOnUse"
       id="clipPath3">
      <path
         d="M 0,720 H 1124 V 0 H 0 Z"
         transform="translate(-601.57811,-379.60641)"
         id="path3" />
    </clipPath>
    <filter
       inkscape:collect="always"
       style="color-interpolation-filters:sRGB"
       id="filter99"
       x="-62.426049"
       y="-68.572421"
       width="125.8521"
       height="138.14484">
      <feGaussianBlur
         inkscape:collect="always"
         stdDeviation="3.7143394"
         id="feGaussianBlur99" />
    </filter>
    <clipPath
       clipPathUnits="userSpaceOnUse"
       id="clipPath5">
      <path
         d="M 0,720 H 1124 V 0 H 0 Z"
         transform="translate(-659.26762,-434.00681)"
         id="path5" />
    </clipPath>
    <filter
       inkscape:collect="always"
       style="color-interpolation-filters:sRGB"
       id="filter98"
       x="-0.091329135"
       y="-0.11281356"
       width="1.1826583"
       height="1.2256271">
      <feGaussianBlur
         inkscape:collect="always"
         stdDeviation="3.7143394"
         id="feGaussianBlur98" />
    </filter>
    <clipPath
       clipPathUnits="userSpaceOnUse"
       id="clipPath7">
      <path
         d="M 0,720 H 1124 V 0 H 0 Z"
         transform="translate(-724.07322,-443.63771)"
         id="path7" />
    </clipPath>
    <filter
       inkscape:collect="always"
       style="color-interpolation-filters:sRGB"
       id="filter97"
       x="-0.097939237"
       y="-0.12692811"
       width="1.1958785"
       height="1.2538562">
      <feGaussianBlur
         inkscape:collect="always"
         stdDeviation="3.7143394"
         id="feGaussianBlur97" />
    </filter>
    <clipPath
       clipPathUnits="userSpaceOnUse"
       id="clipPath9">
      <path
         d="M 0,720 H 1124 V 0 H 0 Z"
         transform="translate(-902.92772,-418.54591)"
         id="path9" />
    </clipPath>
    <filter
       inkscape:collect="always"
       style="color-interpolation-filters:sRGB"
       id="filter96"
       x="-0.069790535"
       y="-0.096388724"
       width="1.1395811"
       height="1.1927774">
      <feGaussianBlur
         inkscape:collect="always"
         stdDeviation="3.7143394"
         id="feGaussianBlur96" />
    </filter>
    <clipPath
       clipPathUnits="userSpaceOnUse"
       id="clipPath11">
      <path
         d="M 0,720 H 1124 V 0 H 0 Z"
         transform="translate(-842.57425,-482.93311)"
         id="path11" />
    </clipPath>
    <filter
       inkscape:collect="always"
       style="color-interpolation-filters:sRGB"
       id="filter95"
       x="-0.42117868"
       y="-0.46065261"
       width="1.8423574"
       height="1.9213052">
      <feGaussianBlur
         inkscape:collect="always"
         stdDeviation="3.7143394"
         id="feGaussianBlur95" />
    </filter>
    <clipPath
       clipPathUnits="userSpaceOnUse"
       id="clipPath13">
      <path
         d="M 0,720 H 1124 V 0 H 0 Z"
         transform="translate(-872.4766,-420.97661)"
         id="path13" />
    </clipPath>
    <filter
       inkscape:collect="always"
       style="color-interpolation-filters:sRGB"
       id="filter94"
       x="-0.4482353"
       y="-0.45050616"
       width="1.8964706"
       height="1.9010123">
      <feGaussianBlur
         inkscape:collect="always"
         stdDeviation="3.7143394"
         id="feGaussianBlur94" />
    </filter>
    <clipPath
       clipPathUnits="userSpaceOnUse"
       id="clipPath15">
      <path
         d="M 0,720 H 1124 V 0 H 0 Z"
         transform="translate(-867.9316,-488.23191)"
         id="path15" />
    </clipPath>
    <filter
       inkscape:collect="always"
       style="color-interpolation-filters:sRGB"
       id="filter93"
       x="-0.43768124"
       y="-0.49350775"
       width="1.8753625"
       height="1.9870155">
      <feGaussianBlur
         inkscape:collect="always"
         stdDeviation="3.7143394"
         id="feGaussianBlur93" />
    </filter>
    <clipPath
       clipPathUnits="userSpaceOnUse"
       id="clipPath17">
      <path
         d="M 0,720 H 1124 V 0 H 0 Z"
         transform="translate(-827.20022,-419.53761)"
         id="path17" />
    </clipPath>
    <filter
       inkscape:collect="always"
       style="color-interpolation-filters:sRGB"
       id="filter92"
       x="-0.46814425"
       y="-0.48434632"
       width="1.9362885"
       height="1.9686926">
      <feGaussianBlur
         inkscape:collect="always"
         stdDeviation="3.7143394"
         id="feGaussianBlur92" />
    </filter>
    <clipPath
       clipPathUnits="userSpaceOnUse"
       id="clipPath19">
      <path
         d="M 0,720 H 1124 V 0 H 0 Z"
         transform="translate(-848.77645,-420.79741)"
         id="path19" />
    </clipPath>
    <filter
       inkscape:collect="always"
       style="color-interpolation-filters:sRGB"
       id="filter91"
       x="-0.45809077"
       y="-0.48594567"
       width="1.9161815"
       height="1.9718913">
      <feGaussianBlur
         inkscape:collect="always"
         stdDeviation="3.7143394"
         id="feGaussianBlur91" />
    </filter>
    <clipPath
       clipPathUnits="userSpaceOnUse"
       id="clipPath21">
      <path
         d="M 0,720 H 1124 V 0 H 0 Z"
         transform="translate(-335.37651,-473.32811)"
         id="path21" />
    </clipPath>
    <filter
       inkscape:collect="always"
       style="color-interpolation-filters:sRGB"
       id="filter90"
       x="-0.10068231"
       y="-0.069621021"
       width="1.2013646"
       height="1.139242">
      <feGaussianBlur
         inkscape:collect="always"
         stdDeviation="3.7143394"
         id="feGaussianBlur90" />
    </filter>
    <clipPath
       clipPathUnits="userSpaceOnUse"
       id="clipPath23">
      <path
         d="M 0,720 H 1124 V 0 H 0 Z"
         transform="translate(-417.58981,-379.23051)"
         id="path23" />
    </clipPath>
    <filter
       inkscape:collect="always"
       style="color-interpolation-filters:sRGB"
       id="filter89"
       x="-0.098783436"
       y="-0.083555144"
       width="1.1975669"
       height="1.1671103">
      <feGaussianBlur
         inkscape:collect="always"
         stdDeviation="3.7143394"
         id="feGaussianBlur89" />
    </filter>
    <clipPath
       clipPathUnits="userSpaceOnUse"
       id="clipPath25">
      <path
         d="M 0,720 H 1124 V 0 H 0 Z"
         transform="translate(-543.55861,-474.42631)"
         id="path25" />
    </clipPath>
    <filter
       inkscape:collect="always"
       style="color-interpolation-filters:sRGB"
       id="filter88"
       x="-0.10888234"
       y="-0.14310031"
       width="1.2177647"
       height="1.2862006">
      <feGaussianBlur
         inkscape:collect="always"
         stdDeviation="3.7143394"
         id="feGaussianBlur88" />
    </filter>
    <clipPath
       clipPathUnits="userSpaceOnUse"
       id="clipPath27">
      <path
         d="M 0,720 H 1124 V 0 H 0 Z"
         transform="translate(-236.37451,-393.99411)"
         id="path27" />
    </clipPath>
    <filter
       inkscape:collect="always"
       style="color-interpolation-filters:sRGB"
       id="filter87"
       x="-0.1000271"
       y="-0.076200046"
       width="1.2000542"
       height="1.1524001">
      <feGaussianBlur
         inkscape:collect="always"
         stdDeviation="3.7143394"
         id="feGaussianBlur87" />
    </filter>
    <clipPath
       clipPathUnits="userSpaceOnUse"
       id="clipPath29">
      <path
         d="M 0,720 H 1124 V 0 H 0 Z"
         transform="translate(-492.44681,-461.57281)"
         id="path29" />
    </clipPath>
    <filter
       inkscape:collect="always"
       style="color-interpolation-filters:sRGB"
       id="filter86"
       x="-0.14496656"
       y="-0.11625598"
       width="1.2899331"
       height="1.232512">
      <feGaussianBlur
         inkscape:collect="always"
         stdDeviation="3.7143394"
         id="feGaussianBlur86" />
    </filter>
    <clipPath
       clipPathUnits="userSpaceOnUse"
       id="clipPath31">
      <path
         d="M 0,720 H 1124 V 0 H 0 Z"
         transform="translate(-301.94971,-460.46191)"
         id="path31" />
    </clipPath>
    <filter
       inkscape:collect="always"
       style="color-interpolation-filters:sRGB"
       id="filter85"
       x="-0.13095855"
       y="-0.071111482"
       width="1.2619171"
       height="1.142223">
      <feGaussianBlur
         inkscape:collect="always"
         stdDeviation="3.7143394"
         id="feGaussianBlur85" />
    </filter>
    <clipPath
       clipPathUnits="userSpaceOnUse"
       id="clipPath33">
      <path
         d="M 0,720 H 1124 V 0 H 0 Z"
         transform="translate(-397.01271,-294.99711)"
         id="path33" />
    </clipPath>
    <filter
       inkscape:collect="always"
       style="color-interpolation-filters:sRGB"
       id="filter84"
       x="-0.10020514"
       y="-0.059703888"
       width="1.2004103"
       height="1.1194078">
      <feGaussianBlur
         inkscape:collect="always"
         stdDeviation="3.7143394"
         id="feGaussianBlur84" />
    </filter>
    <clipPath
       clipPathUnits="userSpaceOnUse"
       id="clipPath35">
      <path
         d="M 0,720 H 1124 V 0 H 0 Z"
         transform="translate(-476.44431,-337.01271)"
         id="path35" />
    </clipPath>
    <filter
       inkscape:collect="always"
       style="color-interpolation-filters:sRGB"
       id="filter83"
       x="-0.11234893"
       y="-0.057591495"
       width="1.2246979"
       height="1.115183">
      <feGaussianBlur
         inkscape:collect="always"
         stdDeviation="3.7143394"
         id="feGaussianBlur83" />
    </filter>
    <clipPath
       clipPathUnits="userSpaceOnUse"
       id="clipPath37">
      <path
         d="M 0,720 H 1124 V 0 H 0 Z"
         transform="translate(-292.3726,-240.5479)"
         id="path37" />
    </clipPath>
    <filter
       inkscape:collect="always"
       style="color-interpolation-filters:sRGB"
       id="filter82"
       x="-0.090712804"
       y="-0.067698589"
       width="1.1814256"
       height="1.1353972">
      <feGaussianBlur
         inkscape:collect="always"
         stdDeviation="3.7143394"
         id="feGaussianBlur82" />
    </filter>
    <clipPath
       clipPathUnits="userSpaceOnUse"
       id="clipPath39">
      <path
         d="M 0,720 H 1124 V 0 H 0 Z"
         transform="translate(-499.19341,-360.24021)"
         id="path39" />
    </clipPath>
    <filter
       inkscape:collect="always"
       style="color-interpolation-filters:sRGB"
       id="filter81"
       x="-0.27846286"
       y="-0.087518062"
       width="1.5569257"
       height="1.1750361">
      <feGaussianBlur
         inkscape:collect="always"
         stdDeviation="3.7143394"
         id="feGaussianBlur81" />
    </filter>
    <clipPath
       clipPathUnits="userSpaceOnUse"
       id="clipPath41">
      <path
         d="M 0,720 H 1124 V 0 H 0 Z"
         transform="translate(-579.52732,-343.35351)"
         id="path41" />
    </clipPath>
    <filter
       inkscape:collect="always"
       style="color-interpolation-filters:sRGB"
       id="filter80"
       x="-0.075056747"
       y="-0.056163813"
       width="1.1501135"
       height="1.1123276">
      <feGaussianBlur
         inkscape:collect="always"
         stdDeviation="3.7143394"
         id="feGaussianBlur80" />
    </filter>
  </defs>
  <g
     inkscape:label="Layer 1"
     inkscape:groupmode="layer"
     id="layer1"
     transform="translate(111.38958,-11.641667)">
    <g
       id="g38"
       transform="matrix(0.26458333,0,0,0.26458333,-271.10935,-42.082357)">
      <path
         id="path42"
         d="M 0,0 C 0,0.007 -0.004,0.069 -0.008,0.13 -0.178,0.049 -0.2,0 0,0"
         style="opacity:0.99;fill:#000000;fill-opacity:1;fill-rule:nonzero;stroke:none;filter:url(#filter99)"
         transform="matrix(2.0754469,0,0,-2.0601742,1414.1129,482.41783)"
         clip-path="url(#clipPath3)" />
      <path
         id="path40"
         d="M 0,0 C 0,0.007 -0.004,0.069 -0.008,0.13 -0.178,0.049 -0.2,0 0,0"
         style="opacity:0.99;fill:#e21717;fill-opacity:1;fill-rule:nonzero;stroke:none"
         transform="matrix(2.0754469,0,0,-2.0601742,1414.1129,482.41783)"
         clip-path="url(#clipPath3)" />
      <path
         id="path43"
         d="m 0,0 c -1.199,-0.729 -2.561,-1.037 -3.954,-1.248 -7.113,-1.134 -33.11,-7.671 -36.708,-8.158 l -1.276,12.165 c 1.718,0.632 26.128,6.383 35.964,7.923 0.73,0.113 1.638,0.258 2.659,0.226 C -1.338,10.843 0.931,10.357 2.178,8.672 3.458,6.922 3.355,6.92 3.403,4.813 3.437,2.577 1.783,1.069 0,0 M 20.057,24.749 C 2.17,22.552 -16.85,20.661 -24.194,19.734 -47.279,16.806 -65.365,15.04 -69.709,14.723 c 0.879,-1.806 1.732,-3.66 2.489,-5.613 4.637,-11.738 7.046,-28.119 8.291,-44.884 0.373,-5.049 1.16,-17.242 1.232,-18.496 2.876,1.375 55.737,13.752 69.536,17.253 l 0.488,0.122 c 1.001,0.245 1.977,0.489 2.807,0.83 0.39,0.147 0.757,0.317 1.073,0.513 4.979,3.074 8.298,8.76 9.493,14.788 l 0.049,0.195 c 0.195,1.025 0.088,5.668 0.161,6.57 l -26.812,-4.333 c -1.392,-6.418 -5.588,-10.274 -12.543,-11.518 -1.834,-0.353 -10.939,-1.976 -17.948,-3.374 -3.581,-0.714 -7.006,1.766 -7.453,5.39 l -1.094,8.888 c 0,0 59.81,10.45 64.081,11.182 2.123,0.342 2.367,1.537 2.464,2.075 1.708,8.614 1.733,15.617 0.025,22.084 -1.122,4.295 -3.449,7.865 -6.573,8.354"
         style="opacity:0.99;fill:#000000;fill-opacity:1;fill-rule:nonzero;stroke:none;filter:url(#filter98)"
         transform="matrix(2.0754469,0,0,-2.0601742,1533.8443,370.34353)"
         clip-path="url(#clipPath5)" />
      <path
         id="path44"
         d="m 0,0 c -1.199,-0.729 -2.561,-1.037 -3.954,-1.248 -7.113,-1.134 -33.11,-7.671 -36.708,-8.158 l -1.276,12.165 c 1.718,0.632 26.128,6.383 35.964,7.923 0.73,0.113 1.638,0.258 2.659,0.226 C -1.338,10.843 0.931,10.357 2.178,8.672 3.458,6.922 3.355,6.92 3.403,4.813 3.437,2.577 1.783,1.069 0,0 M 20.057,24.749 C 2.17,22.552 -16.85,20.661 -24.194,19.734 -47.279,16.806 -65.365,15.04 -69.709,14.723 c 0.879,-1.806 1.732,-3.66 2.489,-5.613 4.637,-11.738 7.046,-28.119 8.291,-44.884 0.373,-5.049 1.16,-17.242 1.232,-18.496 2.876,1.375 55.737,13.752 69.536,17.253 l 0.488,0.122 c 1.001,0.245 1.977,0.489 2.807,0.83 0.39,0.147 0.757,0.317 1.073,0.513 4.979,3.074 8.298,8.76 9.493,14.788 l 0.049,0.195 c 0.195,1.025 0.088,5.668 0.161,6.57 l -26.812,-4.333 c -1.392,-6.418 -5.588,-10.274 -12.543,-11.518 -1.834,-0.353 -10.939,-1.976 -17.948,-3.374 -3.581,-0.714 -7.006,1.766 -7.453,5.39 l -1.094,8.888 c 0,0 59.81,10.45 64.081,11.182 2.123,0.342 2.367,1.537 2.464,2.075 1.708,8.614 1.733,15.617 0.025,22.084 -1.122,4.295 -3.449,7.865 -6.573,8.354"
         style="opacity:0.99;fill:#ff0000;fill-opacity:1;fill-rule:nonzero;stroke:none"
         transform="matrix(2.0754469,0,0,-2.0601742,1533.8443,370.34353)"
         clip-path="url(#clipPath5)" />
      <path
         id="path45"
         d="m 0,0 c -4.781,-1.491 -8.807,-1.12 -8.646,4.19 2.091,4.183 3.387,4.426 8.849,5.631 6.428,1.419 13.331,1.46 19.87,2.219 11.052,1.282 26.396,1.251 35.198,-2.052 0.866,6.109 1.087,13.51 -2.131,18.256 C 35.403,26.055 6.282,21.623 -11.542,19.389 l -0.042,-0.004 c -2.697,-0.232 -5.327,-1.081 -7.561,-2.613 -6.588,-4.519 -11.711,-10.233 -12.499,-18.09 -0.633,-6.336 4.36,-11.691 10.711,-12.137 10.167,-0.714 23.97,3.573 32.99,5.434 5.639,1.247 19.944,5.615 20.889,-0.058 0.845,-5.068 -4.643,-6.966 -10.056,-8.165 -19.43,-4.716 -36.203,-6.147 -53.257,-3.057 -0.438,-4.635 -4.471,-18.052 -4.827,-22.687 22.188,5.499 51.903,12.153 74.012,17.538 4.785,1.165 8.698,6.348 9.446,11.215 0.641,4.178 1.161,8.545 1.388,11.923 C 49.733,15.557 10.938,1.896 0,0"
         style="opacity:0.99;fill:#000000;fill-opacity:1;fill-rule:nonzero;stroke:none;filter:url(#filter97)"
         transform="matrix(2.0754469,0,0,-2.0601742,1668.345,350.5022)"
         clip-path="url(#clipPath7)" />
      <path
         id="path46"
         d="m 0,0 c -4.781,-1.491 -8.807,-1.12 -8.646,4.19 2.091,4.183 3.387,4.426 8.849,5.631 6.428,1.419 13.331,1.46 19.87,2.219 11.052,1.282 26.396,1.251 35.198,-2.052 0.866,6.109 1.087,13.51 -2.131,18.256 C 35.403,26.055 6.282,21.623 -11.542,19.389 l -0.042,-0.004 c -2.697,-0.232 -5.327,-1.081 -7.561,-2.613 -6.588,-4.519 -11.711,-10.233 -12.499,-18.09 -0.633,-6.336 4.36,-11.691 10.711,-12.137 10.167,-0.714 23.97,3.573 32.99,5.434 5.639,1.247 19.944,5.615 20.889,-0.058 0.845,-5.068 -4.643,-6.966 -10.056,-8.165 -19.43,-4.716 -36.203,-6.147 -53.257,-3.057 -0.438,-4.635 -4.471,-18.052 -4.827,-22.687 22.188,5.499 51.903,12.153 74.012,17.538 4.785,1.165 8.698,6.348 9.446,11.215 0.641,4.178 1.161,8.545 1.388,11.923 C 49.733,15.557 10.938,1.896 0,0"
         style="opacity:0.99;fill:#ff0000;fill-opacity:1;fill-rule:nonzero;stroke:none"
         transform="matrix(2.0754469,0,0,-2.0601742,1668.345,350.5022)"
         clip-path="url(#clipPath7)" />
      <path
         id="path47"
         d="m 0,0 c -1.167,2.449 -2.233,4.953 -3.525,7.334 -1.626,2.997 -1.382,6.135 -0.952,9.283 0.444,3.246 1.19,6.452 1.587,9.702 0.756,6.184 -1.453,12.264 -8.338,15.051 -7.004,2.837 -14.201,4.701 -21.683,5.234 -10.202,0.726 -20.397,-0.049 -30.582,-0.739 -6.667,-0.451 -13.339,-0.842 -20.014,-1.116 -1.294,-0.053 -2.66,0.434 -3.909,0.896 -1.106,0.409 -1.493,1.335 -0.785,2.641 2.757,1.572 5.952,2.342 9.105,3.188 8.809,2.361 17.875,2.74 26.905,3.361 13.394,0.921 26.408,-1.264 39.224,-4.933 4.438,-1.27 8.839,-2.665 13.275,-4.009 0.677,3.517 0.604,3.817 -1.174,6.096 -4.111,5.266 -7.954,10.751 -13.398,14.844 -1.725,1.297 -2.391,3.27 -1.549,5.491 0.68,1.795 1.387,3.583 1.967,5.411 0.16,0.508 -0.092,1.146 -0.183,2.001 -0.716,-0.36 -1.144,-0.494 -1.476,-0.753 -12.225,-9.487 -26.408,-13.754 -41.536,-15.038 -6.643,-0.564 -13.383,-0.298 -20.059,0.011 -3.046,0.141 -6.249,0.198 -9.412,1.541 1.064,1.008 1.935,1.89 2.866,2.704 1.447,1.268 3.037,2.39 4.387,3.752 4.634,4.669 3.199,10.492 -3.187,12.736 -0.871,-0.254 -1.889,-0.439 -2.804,-0.851 -1.004,-0.451 -1.914,-1.111 -2.747,-1.61 -1.201,0.709 -2.192,1.585 -3.341,1.914 -3.239,0.929 -6.394,-1.511 -6.572,-5.008 -0.192,-3.759 1.378,-6.81 4.111,-9.287 1.423,-1.289 2.938,-2.478 4.411,-3.713 -2.953,0.251 -5.63,1.112 -8.367,1.682 -2.745,0.573 -5.429,1.991 -8.515,1.161 0.996,-2.162 1.883,-4.088 2.661,-5.777 -1.373,-3.568 -3.932,-5.683 -6.295,-7.963 -1.627,-1.571 -3.276,-3.129 -4.799,-4.799 -3.461,-3.794 -4.39,-8.404 -3.704,-13.309 0.583,-4.169 2.483,-7.329 7.018,-8.581 5.81,-1.602 11.627,-3.083 17.673,-2.969 8.043,0.151 16.081,0.543 24.119,0.897 3.393,0.15 6.793,0.337 10.162,0.737 7.63,0.906 15.17,0.058 22.673,-1.102 2.627,-0.406 5.28,-1.245 7.281,-3.254 -0.275,-1.489 -1.115,-2.314 -2.42,-2.626 -1.205,-0.289 -2.439,-0.666 -3.657,-0.659 -4.532,0.028 -9.063,0.203 -13.595,0.31 -2.38,0.056 -4.77,0.25 -7.137,0.098 -7.682,-0.495 -15.349,-1.225 -23.033,-1.671 -10.303,-0.599 -20.319,0.849 -29.945,4.703 -2.483,0.994 -5.009,1.885 -7.432,2.793 -3.361,-7.703 -6.575,-15.073 -9.959,-22.831 1.655,0.2 2.85,0.802 4.073,1.264 3.321,1.254 6.728,1.915 10.301,1.817 3.976,-0.109 6.978,-1.842 8.909,-5.253 0.995,-1.76 1.682,-3.698 2.461,-5.574 0.382,-0.92 0.659,-1.883 1.051,-3.023 0.699,0.388 1.175,0.645 1.643,0.913 7.513,4.291 15.427,7.647 23.788,9.846 7.89,2.077 15.901,3.335 24.083,3.861 8.215,0.527 16.277,-0.131 24.339,-1.447 7.733,-1.262 15.153,-3.653 22.514,-6.257 C -2.166,-1.351 -0.79,-1.696 1.072,-2.25 0.551,-1.154 0.275,-0.577 0,0"
         style="opacity:0.99;fill:#000000;fill-opacity:1;fill-rule:nonzero;stroke:none;filter:url(#filter96)"
         transform="matrix(2.0754469,0,0,-2.0601742,2039.5479,402.19568)"
         clip-path="url(#clipPath9)" />
      <path
         id="path48"
         d="m 0,0 c -1.167,2.449 -2.233,4.953 -3.525,7.334 -1.626,2.997 -1.382,6.135 -0.952,9.283 0.444,3.246 1.19,6.452 1.587,9.702 0.756,6.184 -1.453,12.264 -8.338,15.051 -7.004,2.837 -14.201,4.701 -21.683,5.234 -10.202,0.726 -20.397,-0.049 -30.582,-0.739 -6.667,-0.451 -13.339,-0.842 -20.014,-1.116 -1.294,-0.053 -2.66,0.434 -3.909,0.896 -1.106,0.409 -1.493,1.335 -0.785,2.641 2.757,1.572 5.952,2.342 9.105,3.188 8.809,2.361 17.875,2.74 26.905,3.361 13.394,0.921 26.408,-1.264 39.224,-4.933 4.438,-1.27 8.839,-2.665 13.275,-4.009 0.677,3.517 0.604,3.817 -1.174,6.096 -4.111,5.266 -7.954,10.751 -13.398,14.844 -1.725,1.297 -2.391,3.27 -1.549,5.491 0.68,1.795 1.387,3.583 1.967,5.411 0.16,0.508 -0.092,1.146 -0.183,2.001 -0.716,-0.36 -1.144,-0.494 -1.476,-0.753 -12.225,-9.487 -26.408,-13.754 -41.536,-15.038 -6.643,-0.564 -13.383,-0.298 -20.059,0.011 -3.046,0.141 -6.249,0.198 -9.412,1.541 1.064,1.008 1.935,1.89 2.866,2.704 1.447,1.268 3.037,2.39 4.387,3.752 4.634,4.669 3.199,10.492 -3.187,12.736 -0.871,-0.254 -1.889,-0.439 -2.804,-0.851 -1.004,-0.451 -1.914,-1.111 -2.747,-1.61 -1.201,0.709 -2.192,1.585 -3.341,1.914 -3.239,0.929 -6.394,-1.511 -6.572,-5.008 -0.192,-3.759 1.378,-6.81 4.111,-9.287 1.423,-1.289 2.938,-2.478 4.411,-3.713 -2.953,0.251 -5.63,1.112 -8.367,1.682 -2.745,0.573 -5.429,1.991 -8.515,1.161 0.996,-2.162 1.883,-4.088 2.661,-5.777 -1.373,-3.568 -3.932,-5.683 -6.295,-7.963 -1.627,-1.571 -3.276,-3.129 -4.799,-4.799 -3.461,-3.794 -4.39,-8.404 -3.704,-13.309 0.583,-4.169 2.483,-7.329 7.018,-8.581 5.81,-1.602 11.627,-3.083 17.673,-2.969 8.043,0.151 16.081,0.543 24.119,0.897 3.393,0.15 6.793,0.337 10.162,0.737 7.63,0.906 15.17,0.058 22.673,-1.102 2.627,-0.406 5.28,-1.245 7.281,-3.254 -0.275,-1.489 -1.115,-2.314 -2.42,-2.626 -1.205,-0.289 -2.439,-0.666 -3.657,-0.659 -4.532,0.028 -9.063,0.203 -13.595,0.31 -2.38,0.056 -4.77,0.25 -7.137,0.098 -7.682,-0.495 -15.349,-1.225 -23.033,-1.671 -10.303,-0.599 -20.319,0.849 -29.945,4.703 -2.483,0.994 -5.009,1.885 -7.432,2.793 -3.361,-7.703 -6.575,-15.073 -9.959,-22.831 1.655,0.2 2.85,0.802 4.073,1.264 3.321,1.254 6.728,1.915 10.301,1.817 3.976,-0.109 6.978,-1.842 8.909,-5.253 0.995,-1.76 1.682,-3.698 2.461,-5.574 0.382,-0.92 0.659,-1.883 1.051,-3.023 0.699,0.388 1.175,0.645 1.643,0.913 7.513,4.291 15.427,7.647 23.788,9.846 7.89,2.077 15.901,3.335 24.083,3.861 8.215,0.527 16.277,-0.131 24.339,-1.447 7.733,-1.262 15.153,-3.653 22.514,-6.257 C -2.166,-1.351 -0.79,-1.696 1.072,-2.25 0.551,-1.154 0.275,-0.577 0,0"
         style="opacity:0.99;fill:#ff0000;fill-opacity:1;fill-rule:nonzero;stroke:none"
         transform="matrix(2.0754469,0,0,-2.0601742,2039.5479,402.19568)"
         clip-path="url(#clipPath9)" />
      <path
         id="path49"
         d="m 0,0 c 2.701,2.518 5.302,4.846 7.776,7.299 0.945,0.937 1.751,2.086 2.365,3.271 1.421,2.752 0.797,6.096 -1.281,7.738 C 6.842,19.903 3.918,19.654 1.389,17.67 0.962,17.335 0.538,16.996 0.099,16.646 -0.505,17.17 -0.981,17.662 -1.533,18.048 -4.775,20.32 -7.978,19.375 -9.512,15.742 -10.825,12.634 -10.387,9.747 -8.32,7.155 -5.978,4.218 -2.906,2.117 0,0"
         style="opacity:0.99;fill:#000000;fill-opacity:1;fill-rule:nonzero;stroke:none;filter:url(#filter95)"
         transform="matrix(2.0754469,0,0,-2.0601742,1914.2874,269.54682)"
         clip-path="url(#clipPath11)" />
      <path
         id="path50"
         d="m 0,0 c 2.701,2.518 5.302,4.846 7.776,7.299 0.945,0.937 1.751,2.086 2.365,3.271 1.421,2.752 0.797,6.096 -1.281,7.738 C 6.842,19.903 3.918,19.654 1.389,17.67 0.962,17.335 0.538,16.996 0.099,16.646 -0.505,17.17 -0.981,17.662 -1.533,18.048 -4.775,20.32 -7.978,19.375 -9.512,15.742 -10.825,12.634 -10.387,9.747 -8.32,7.155 -5.978,4.218 -2.906,2.117 0,0"
         style="opacity:0.99;fill:#ff0000;fill-opacity:1;fill-rule:nonzero;stroke:none"
         transform="matrix(2.0754469,0,0,-2.0601742,1914.2874,269.54682)"
         clip-path="url(#clipPath11)" />
      <path
         id="path51"
         d="m 0,0 c -2.317,-2.422 -4.644,-4.588 -6.631,-7.03 -1.181,-1.45 -2.035,-3.261 -2.662,-5.041 -0.718,-2.039 0.458,-4.692 2.248,-5.965 1.931,-1.372 3.671,-1.293 5.892,0.271 0.363,0.257 0.724,0.518 1.071,0.765 4.152,-3.862 6.865,-3.704 9.976,0.43 1.224,3.845 0.061,7.003 -2.596,9.667 C 4.996,-4.595 2.565,-2.417 0,0"
         style="opacity:0.99;fill:#000000;fill-opacity:1;fill-rule:nonzero;stroke:none;filter:url(#filter94)"
         transform="matrix(2.0754469,0,0,-2.0601742,1976.3482,397.18802)"
         clip-path="url(#clipPath13)" />
      <path
         id="path52"
         d="m 0,0 c -2.317,-2.422 -4.644,-4.588 -6.631,-7.03 -1.181,-1.45 -2.035,-3.261 -2.662,-5.041 -0.718,-2.039 0.458,-4.692 2.248,-5.965 1.931,-1.372 3.671,-1.293 5.892,0.271 0.363,0.257 0.724,0.518 1.071,0.765 4.152,-3.862 6.865,-3.704 9.976,0.43 1.224,3.845 0.061,7.003 -2.596,9.667 C 4.996,-4.595 2.565,-2.417 0,0"
         style="opacity:0.99;fill:#ff0000;fill-opacity:1;fill-rule:nonzero;stroke:none"
         transform="matrix(2.0754469,0,0,-2.0601742,1976.3482,397.18802)"
         clip-path="url(#clipPath13)" />
      <path
         id="path53"
         d="m 0,0 c 2.593,2.242 5.234,4.35 7.646,6.693 1.093,1.063 2.009,2.495 2.524,3.932 1.408,3.938 -1.77,8.123 -5.609,7.344 -1.375,-0.279 -2.558,-1.514 -4.028,-2.44 -0.218,0.194 -0.67,0.678 -1.198,1.055 -3.174,2.266 -6.323,1.51 -8.194,-1.943 -1.532,-2.828 -1.319,-5.307 0.765,-7.837 C -5.847,4.078 -2.989,2.069 0,0"
         style="opacity:0.99;fill:#000000;fill-opacity:1;fill-rule:nonzero;stroke:none;filter:url(#filter93)"
         transform="matrix(2.0754469,0,0,-2.0601742,1966.9153,258.63037)"
         clip-path="url(#clipPath15)" />
      <path
         id="path54"
         d="m 0,0 c 2.593,2.242 5.234,4.35 7.646,6.693 1.093,1.063 2.009,2.495 2.524,3.932 1.408,3.938 -1.77,8.123 -5.609,7.344 -1.375,-0.279 -2.558,-1.514 -4.028,-2.44 -0.218,0.194 -0.67,0.678 -1.198,1.055 -3.174,2.266 -6.323,1.51 -8.194,-1.943 -1.532,-2.828 -1.319,-5.307 0.765,-7.837 C -5.847,4.078 -2.989,2.069 0,0"
         style="opacity:0.99;fill:#ff0000;fill-opacity:1;fill-rule:nonzero;stroke:none"
         transform="matrix(2.0754469,0,0,-2.0601742,1966.9153,258.63037)"
         clip-path="url(#clipPath15)" />
      <path
         id="path55"
         d="m 0,0 c -2.406,-2.082 -4.7,-4.079 -7.008,-6.058 -1.633,-1.4 -2.428,-3.289 -2.904,-5.28 -0.804,-3.358 1.474,-6.63 4.712,-7.017 2.092,-0.25 3.785,0.447 4.846,1.86 1.992,-0.379 3.454,-1.028 4.8,-0.841 3.653,0.509 5.342,3.815 4.136,7.424 C 7.089,-5.438 3.514,-2.844 0,0"
         style="opacity:0.99;fill:#000000;fill-opacity:1;fill-rule:nonzero;stroke:none;filter:url(#filter92)"
         transform="matrix(2.0754469,0,0,-2.0601742,1882.3795,400.1526)"
         clip-path="url(#clipPath17)" />
      <path
         id="path56"
         d="m 0,0 c -2.406,-2.082 -4.7,-4.079 -7.008,-6.058 -1.633,-1.4 -2.428,-3.289 -2.904,-5.28 -0.804,-3.358 1.474,-6.63 4.712,-7.017 2.092,-0.25 3.785,0.447 4.846,1.86 1.992,-0.379 3.454,-1.028 4.8,-0.841 3.653,0.509 5.342,3.815 4.136,7.424 C 7.089,-5.438 3.514,-2.844 0,0"
         style="opacity:0.99;fill:#ff0000;fill-opacity:1;fill-rule:nonzero;stroke:none"
         transform="matrix(2.0754469,0,0,-2.0601742,1882.3795,400.1526)"
         clip-path="url(#clipPath17)" />
      <path
         id="path57"
         d="m 0,0 c -2.371,-2.137 -4.854,-4.255 -7.193,-6.52 -2.045,-1.978 -3.12,-4.425 -2.774,-7.352 0.307,-2.597 2.144,-4.209 4.754,-4.451 2.15,-0.199 3.596,1.019 4.962,2.265 0.858,-0.481 1.51,-0.96 2.238,-1.233 2.628,-0.987 4.956,-0.157 6.468,2.228 1.508,2.376 1.305,4.667 -0.891,7.111 C 5.15,-5.266 2.591,-2.711 0,0"
         style="opacity:0.99;fill:#000000;fill-opacity:1;fill-rule:nonzero;stroke:none;filter:url(#filter91)"
         transform="matrix(2.0754469,0,0,-2.0601742,1927.1598,397.55719)"
         clip-path="url(#clipPath19)" />
      <path
         id="path58"
         d="m 0,0 c -2.371,-2.137 -4.854,-4.255 -7.193,-6.52 -2.045,-1.978 -3.12,-4.425 -2.774,-7.352 0.307,-2.597 2.144,-4.209 4.754,-4.451 2.15,-0.199 3.596,1.019 4.962,2.265 0.858,-0.481 1.51,-0.96 2.238,-1.233 2.628,-0.987 4.956,-0.157 6.468,2.228 1.508,2.376 1.305,4.667 -0.891,7.111 C 5.15,-5.266 2.591,-2.711 0,0"
         style="opacity:0.99;fill:#ff0000;fill-opacity:1;fill-rule:nonzero;stroke:none"
         transform="matrix(2.0754469,0,0,-2.0601742,1927.1598,397.55719)"
         clip-path="url(#clipPath19)" />
      <path
         id="path59"
         d="m 0,0 c 5.662,-7.199 10.323,-16.399 13.934,-27.453 4.027,-10.86 9.469,-27.747 10.103,-41.315 0.562,-12.42 -1.146,-25.378 -2.684,-34.09 -0.488,-2.685 -1.439,-5.174 -2.806,-7.419 6.003,1.244 11.981,2.562 17.911,3.978 3.978,26.648 -3.343,71.061 -3.343,71.061 0,0 21.719,-38.801 29.528,-64.448 4.417,1.196 8.76,2.415 13.08,3.66 0.756,36.312 -12.812,79.213 -35.14,110.302 -0.22,0.049 -0.439,0.097 -0.659,0.146 -6.052,1.489 -12.519,2.587 -19.401,3.051 C 36.336,3.026 48.367,-31.138 48.733,-32.261 47.928,-31.089 23.33,4.026 10.909,17.765 3.295,17.692 -4.661,16.813 -12.787,14.91 -8.248,11.128 -3.782,4.783 0,0"
         style="opacity:0.99;fill:#000000;fill-opacity:1;fill-rule:nonzero;stroke:none;filter:url(#filter90)"
         transform="matrix(2.0754469,0,0,-2.0601742,861.62551,289.3348)"
         clip-path="url(#clipPath21)"
         sodipodi:nodetypes="cccccccccccccccc" />
      <path
         id="path60"
         d="m 0,0 c 5.662,-7.199 10.323,-16.399 13.934,-27.453 4.027,-10.86 9.469,-27.747 10.103,-41.315 0.562,-12.42 -1.146,-25.378 -2.684,-34.09 -0.488,-2.685 -1.439,-5.174 -2.806,-7.419 6.003,1.244 11.981,2.562 17.911,3.978 3.978,26.648 -3.343,71.061 -3.343,71.061 0,0 21.719,-38.801 29.528,-64.448 4.417,1.196 8.76,2.415 13.08,3.66 0.756,36.312 -12.812,79.213 -35.14,110.302 -0.22,0.049 -0.439,0.097 -0.659,0.146 -6.052,1.489 -12.519,2.587 -19.401,3.051 C 36.336,3.026 48.367,-31.138 48.733,-32.261 47.928,-31.089 23.33,4.026 10.909,17.765 3.295,17.692 -4.661,16.813 -12.787,14.91 -8.248,11.128 -3.782,4.783 0,0"
         style="opacity:0.99;fill:#ffffff;fill-opacity:1;fill-rule:nonzero;stroke:none"
         transform="matrix(2.0754469,0,0,-2.0601742,861.62551,289.3348)"
         clip-path="url(#clipPath21)"
         sodipodi:nodetypes="cccccccccccccccc" />
      <path
         id="path61"
         d="m 0,0 c 4.979,1.488 9.883,3.026 14.691,4.612 0.146,7.053 -3.27,19.864 -4.368,26.331 9.907,-12.275 25.745,-16.741 35.872,-15.228 0.025,0 0.025,0.025 0.049,0.025 2.904,1.098 5.759,2.196 8.541,3.343 L 51.247,29.698 C 29.625,28.527 17.741,44.438 12.25,50.733 c 5.028,6.418 7.37,18.327 9.177,26.673 -3.49,2.416 -7.444,5.198 -12.056,8.126 C 6.15,76.283 3.319,70.744 0.854,67.45 c -2.586,12.469 -5.832,20.888 -11.688,29.332 -0.22,0.097 -0.439,0.219 -0.66,0.317 0,0 -0.585,0.293 -1.708,0.781 -6.393,2.929 -14.69,6.442 -22.255,8.809 C -26.745,94.562 -11.225,69.451 -6.734,48.488 -5.1,40.777 -0.415,10.811 0,0"
         style="opacity:0.99;fill:#000000;fill-opacity:1;fill-rule:nonzero;stroke:none;filter:url(#filter89)"
         transform="matrix(2.0754469,0,0,-2.0601742,1032.2549,483.19225)"
         clip-path="url(#clipPath23)"
         sodipodi:nodetypes="ccccccccccccccccc" />
      <path
         id="path62"
         d="m 0,0 c 4.979,1.488 9.883,3.026 14.691,4.612 0.146,7.053 -3.27,19.864 -4.368,26.331 9.907,-12.275 25.745,-16.741 35.872,-15.228 0.025,0 0.025,0.025 0.049,0.025 2.904,1.098 5.759,2.196 8.541,3.343 L 51.247,29.698 C 29.625,28.527 17.741,44.438 12.25,50.733 c 5.028,6.418 7.37,18.327 9.177,26.673 -3.49,2.416 -7.444,5.198 -12.056,8.126 C 6.15,76.283 3.319,70.744 0.854,67.45 c -2.586,12.469 -5.832,20.888 -11.688,29.332 -0.22,0.097 -0.439,0.219 -0.66,0.317 0,0 -0.585,0.293 -1.708,0.781 -6.393,2.929 -14.69,6.442 -22.255,8.809 C -26.745,94.562 -11.225,69.451 -6.734,48.488 -5.1,40.777 -0.415,10.811 0,0"
         style="opacity:0.99;fill:#ffffff;fill-opacity:1;fill-rule:nonzero;stroke:none"
         transform="matrix(2.0754469,0,0,-2.0601742,1032.2549,483.19225)"
         clip-path="url(#clipPath23)"
         sodipodi:nodetypes="ccccccccccccccccc" />
      <path
         id="path63"
         d="M 0,0 -17.131,-8.126 -22.963,7.492 C -18.742,8.395 6.149,5.808 0,0 m -32.651,-5.222 c 4.002,-10.445 16.521,-43.413 16.521,-43.413 5.636,5.222 11.542,9.737 17.667,13.519 10.957,8.639 25.672,13.641 36.776,16.399 0.073,0.171 0.146,0.342 0.219,0.537 -4.003,4.173 -9.638,9.492 -17.179,15.179 l -8.2,-4.93 c 5.686,-6.613 2.319,-9.59 -3.88,-13.373 -0.049,0 -0.122,-0.073 -0.171,-0.097 -0.219,-0.098 -0.341,-0.171 -0.341,-0.171 l 0.049,-0.025 c -5.784,-3.416 -11.641,-6.051 -15.228,-8.394 l -5.906,13.568 27.991,14.52 c 0.805,0.365 1.366,1.025 1.732,1.83 -3.196,2.294 -6.686,4.612 -10.493,6.93 -21.548,10.616 -37.629,7.443 -50.246,-0.219 3.734,-2.197 8.444,-5.979 10.689,-11.86"
         style="opacity:0.99;fill:#000000;fill-opacity:1;fill-rule:nonzero;stroke:none;filter:url(#filter88)"
         transform="matrix(2.0754469,0,0,-2.0601742,1293.6964,287.07232)"
         clip-path="url(#clipPath25)"
         sodipodi:nodetypes="cccccccccccccccccccccc" />
      <path
         id="path64"
         d="M 0,0 -17.131,-8.126 -22.963,7.492 C -18.742,8.395 6.149,5.808 0,0 m -32.651,-5.222 c 4.002,-10.445 16.521,-43.413 16.521,-43.413 5.636,5.222 11.542,9.737 17.667,13.519 10.957,8.639 25.672,13.641 36.776,16.399 0.073,0.171 0.146,0.342 0.219,0.537 -4.003,4.173 -9.638,9.492 -17.179,15.179 l -8.2,-4.93 c 5.686,-6.613 2.319,-9.59 -3.88,-13.373 -0.049,0 -0.122,-0.073 -0.171,-0.097 -0.219,-0.098 -0.341,-0.171 -0.341,-0.171 l 0.049,-0.025 c -5.784,-3.416 -11.641,-6.051 -15.228,-8.394 l -5.906,13.568 27.991,14.52 c 0.805,0.365 1.366,1.025 1.732,1.83 -3.196,2.294 -6.686,4.612 -10.493,6.93 -21.548,10.616 -37.629,7.443 -50.246,-0.219 3.734,-2.197 8.444,-5.979 10.689,-11.86"
         style="opacity:0.99;fill:#ffffff;fill-opacity:1;fill-rule:nonzero;stroke:none"
         transform="matrix(2.0754469,0,0,-2.0601742,1293.6964,287.07232)"
         clip-path="url(#clipPath25)"
         sodipodi:nodetypes="cccccccccccccccccccccc" />
      <path
         id="path65"
         d="m 0,0 c 1.854,-9.957 1.928,-13.275 6.637,-25.208 2.563,-6.467 4.344,-15.179 4.93,-18.352 0.073,-0.195 0.122,-0.415 0.195,-0.61 6.076,0.147 12.225,0.44 18.448,0.855 -1.903,25.623 1.977,45.218 1.977,45.218 l 0.024,-0.049 c 0,-0.024 0.025,-0.097 0.049,-0.195 0.049,-0.171 0.073,-0.317 0.122,-0.463 0.049,-0.22 0.122,-0.415 0.171,-0.611 0.073,-0.292 0.171,-0.609 0.269,-0.976 2.122,-7.442 9.394,-27.746 22.695,-40.655 5.71,0.659 11.444,1.391 17.228,2.221 -0.903,0.757 -1.733,1.561 -2.514,2.465 -12.494,14.397 -21.767,35.628 -27.575,63.106 -3.197,15.105 -2.367,32.65 -1.098,44.706 0.048,0.39 0.097,0.805 0.171,1.195 C 36.213,68.279 29.747,62.545 24.646,57.127 22.718,51.539 21.499,43.925 19.375,32.675 V 32.602 C 17.204,21.06 18.253,6.906 16.837,-12.324 c -0.561,1.098 -1.097,2.197 -1.659,3.246 -0.024,0 -0.024,0.024 -0.024,0.073 C 7.882,6.613 7.955,25.916 8.907,37.556 -8.883,11.298 -15.936,-17.18 -16.375,-43.95 c 5.223,-0.22 10.518,-0.365 15.911,-0.39 C -4.002,-18.864 0,0 0,0"
         style="opacity:0.99;fill:#000000;fill-opacity:1;fill-rule:nonzero;stroke:none;filter:url(#filter87)"
         transform="matrix(2.0754469,0,0,-2.0601742,656.15211,452.77666)"
         clip-path="url(#clipPath27)" />
      <path
         id="path66"
         d="m 0,0 c 1.854,-9.957 1.928,-13.275 6.637,-25.208 2.563,-6.467 4.344,-15.179 4.93,-18.352 0.073,-0.195 0.122,-0.415 0.195,-0.61 6.076,0.147 12.225,0.44 18.448,0.855 -1.903,25.623 1.977,45.218 1.977,45.218 l 0.024,-0.049 c 0,-0.024 0.025,-0.097 0.049,-0.195 0.049,-0.171 0.073,-0.317 0.122,-0.463 0.049,-0.22 0.122,-0.415 0.171,-0.611 0.073,-0.292 0.171,-0.609 0.269,-0.976 2.122,-7.442 9.394,-27.746 22.695,-40.655 5.71,0.659 11.444,1.391 17.228,2.221 -0.903,0.757 -1.733,1.561 -2.514,2.465 -12.494,14.397 -21.767,35.628 -27.575,63.106 -3.197,15.105 -2.367,32.65 -1.098,44.706 0.048,0.39 0.097,0.805 0.171,1.195 C 36.213,68.279 29.747,62.545 24.646,57.127 22.718,51.539 21.499,43.925 19.375,32.675 V 32.602 C 17.204,21.06 18.253,6.906 16.837,-12.324 c -0.561,1.098 -1.097,2.197 -1.659,3.246 -0.024,0 -0.024,0.024 -0.024,0.073 C 7.882,6.613 7.955,25.916 8.907,37.556 -8.883,11.298 -15.936,-17.18 -16.375,-43.95 c 5.223,-0.22 10.518,-0.365 15.911,-0.39 C -4.002,-18.864 0,0 0,0"
         style="opacity:0.99;fill:#ffffff;fill-opacity:1;fill-rule:nonzero;stroke:none"
         transform="matrix(2.0754469,0,0,-2.0601742,656.15211,452.77666)"
         clip-path="url(#clipPath27)" />
      <path
         id="path67"
         d="m 0,0 c 0.367,0.367 0.777,0.583 1.209,0.583 0.216,0 1.296,-0.022 1.662,-1.295 l 2.756,-8.804 c 0.28,-0.928 -0.13,-1.986 -0.907,-2.483 l -18.091,-10.798 -3.147,7.527 C -14.079,-12.852 -2.762,-2.979 0,0 m -25.05,-31.072 c 0.025,-0.097 0.049,-0.195 0.098,-0.293 0.463,-1.415 0.975,-2.879 1.439,-4.441 1.562,-5.076 6.565,-19.596 7.833,-25.672 16.278,6.711 30.651,13.665 42.413,20.523 1.757,1.976 2.416,5.027 1.391,7.736 l -6.662,14.934 -11.47,-7.687 2.612,-5.686 c 0.464,-1.512 -0.049,-3.27 -1.318,-4.124 C 9.382,-37.1 -6.113,-45.836 -6.113,-45.836 l -3.707,14.432 21.328,12.665 c 4.588,2.684 6.808,8.712 5.198,14.105 L 11.408,7.851 C 9.92,12.854 5.771,15.513 1.549,15.172 -11.604,4.971 -20.608,-9.061 -28.54,-12.892 c -1.488,-0.732 -2.928,-1.147 -4.343,-1.342 0.951,-1.537 2.026,-3.563 3.074,-5.978 0.976,-2.465 3.612,-7.517 4.759,-10.86"
         style="opacity:0.99;fill:#000000;fill-opacity:1;fill-rule:nonzero;stroke:none;filter:url(#filter86)"
         transform="matrix(2.0754469,0,0,-2.0601742,1187.6166,313.55276)"
         clip-path="url(#clipPath29)"
         sodipodi:nodetypes="cscccccccccccccccccccccccccc" />
      <path
         id="path68"
         d="m 0,0 c 0.367,0.367 0.777,0.583 1.209,0.583 0.216,0 1.296,-0.022 1.662,-1.295 l 2.756,-8.804 c 0.28,-0.928 -0.13,-1.986 -0.907,-2.483 l -18.091,-10.798 -3.147,7.527 C -14.079,-12.852 -2.762,-2.979 0,0 m -25.05,-31.072 c 0.025,-0.097 0.049,-0.195 0.098,-0.293 0.463,-1.415 0.975,-2.879 1.439,-4.441 1.562,-5.076 6.565,-19.596 7.833,-25.672 16.278,6.711 30.651,13.665 42.413,20.523 1.757,1.976 2.416,5.027 1.391,7.736 l -6.662,14.934 -11.47,-7.687 2.612,-5.686 c 0.464,-1.512 -0.049,-3.27 -1.318,-4.124 C 9.382,-37.1 -6.113,-45.836 -6.113,-45.836 l -3.707,14.432 21.328,12.665 c 4.588,2.684 6.808,8.712 5.198,14.105 L 11.408,7.851 C 9.92,12.854 5.771,15.513 1.549,15.172 -11.604,4.971 -20.608,-9.061 -28.54,-12.892 c -1.488,-0.732 -2.928,-1.147 -4.343,-1.342 0.951,-1.537 2.026,-3.563 3.074,-5.978 0.976,-2.465 3.612,-7.517 4.759,-10.86"
         style="opacity:0.99;fill:#ffffff;fill-opacity:1;fill-rule:nonzero;stroke:none"
         transform="matrix(2.0754469,0,0,-2.0601742,1187.6166,313.55276)"
         clip-path="url(#clipPath29)"
         sodipodi:nodetypes="cscccccccccccccccccccccccccc" />
      <path
         id="path69"
         d="m 0,0 c 0.063,0.7 0.496,1.309 1.127,1.618 1.958,0.96 3.886,1.85 5.769,2.664 0.831,0.359 1.798,0.123 2.371,-0.578 1.211,-1.48 2.39,-3.016 3.537,-4.603 5.055,-7.003 8.96,-14.767 11.935,-22.875 3.645,-9.937 7.894,-23.598 8.345,-33.269 0.409,-8.813 -0.651,-18.301 -1.804,-25.547 -0.137,-0.858 -0.806,-1.516 -1.662,-1.666 l -6.369,-1.115 c -0.743,-0.13 -1.499,0.143 -1.964,0.736 C 12.519,-73.449 5.514,-56.265 0.953,-34.684 -1.481,-23.178 -0.806,-8.85 0,0 m 10.186,-98.02 c 3.296,-3.796 8.395,-5.509 13.348,-4.643 l 12.249,2.143 c 6.025,1.055 10.72,5.773 11.787,11.796 1.483,8.373 3.123,20.758 2.577,32.474 -0.944,20.285 -13.879,49.7 -13.879,49.7 -4.527,8.695 -9.886,16.748 -16.269,24.006 -4.05,4.605 -10.534,6.281 -16.234,4.019 -4.121,-1.636 -8.38,-3.58 -12.776,-5.831 -4.348,-2.227 -7.229,-6.551 -7.737,-11.41 -1.041,-9.952 -2.136,-27.674 0.988,-42.451 4.094,-19.369 11.744,-43.444 25.946,-59.803"
         style="opacity:0.99;fill:#000000;fill-opacity:1;fill-rule:nonzero;stroke:none;filter:url(#filter85)"
         transform="matrix(2.0754469,0,0,-2.0601742,792.24996,315.84141)"
         clip-path="url(#clipPath31)" />
      <path
         id="path70"
         d="m 0,0 c 0.063,0.7 0.496,1.309 1.127,1.618 1.958,0.96 3.886,1.85 5.769,2.664 0.831,0.359 1.798,0.123 2.371,-0.578 1.211,-1.48 2.39,-3.016 3.537,-4.603 5.055,-7.003 8.96,-14.767 11.935,-22.875 3.645,-9.937 7.894,-23.598 8.345,-33.269 0.409,-8.813 -0.651,-18.301 -1.804,-25.547 -0.137,-0.858 -0.806,-1.516 -1.662,-1.666 l -6.369,-1.115 c -0.743,-0.13 -1.499,0.143 -1.964,0.736 C 12.519,-73.449 5.514,-56.265 0.953,-34.684 -1.481,-23.178 -0.806,-8.85 0,0 m 10.186,-98.02 c 3.296,-3.796 8.395,-5.509 13.348,-4.643 l 12.249,2.143 c 6.025,1.055 10.72,5.773 11.787,11.796 1.483,8.373 3.123,20.758 2.577,32.474 -0.944,20.285 -13.879,49.7 -13.879,49.7 -4.527,8.695 -9.886,16.748 -16.269,24.006 -4.05,4.605 -10.534,6.281 -16.234,4.019 -4.121,-1.636 -8.38,-3.58 -12.776,-5.831 -4.348,-2.227 -7.229,-6.551 -7.737,-11.41 -1.041,-9.952 -2.136,-27.674 0.988,-42.451 4.094,-19.369 11.744,-43.444 25.946,-59.803"
         style="opacity:0.99;fill:#ffffff;fill-opacity:1;fill-rule:nonzero;stroke:none"
         transform="matrix(2.0754469,0,0,-2.0601742,792.24996,315.84141)"
         clip-path="url(#clipPath31)" />
      <path
         id="path71"
         d="m 0,0 c -3.024,23.776 -6.744,47.098 -10.927,68.38 -6.298,-1.699 -12.628,-3.441 -18.927,-4.951 3.311,-22.279 17.524,-102.19 17.524,-102.19 0.443,-6.08 -2.87,-11.724 -8.018,-13.638 l -16.573,-5.589 c -4.906,-1.831 -8.877,1.982 -11.592,6.909 -3.135,5.657 -4.342,12.734 -6.009,24.547 -0.28,3.304 -7.366,62.972 -10.08,83.113 -5.753,-1.061 -13.206,-2.342 -18.79,-3.157 2.647,-24.749 7.038,-57.845 10.188,-85.117 0,0 4.948,-39.581 20.877,-46.46 24.315,-9.374 49.763,7.209 55.872,16.735 6.097,9.506 -3.52,61.415 -3.52,61.415 z"
         style="opacity:0.99;fill:#000000;fill-opacity:1;fill-rule:nonzero;stroke:none;filter:url(#filter84)"
         transform="matrix(2.0754469,0,0,-2.0601742,989.54817,656.72773)"
         clip-path="url(#clipPath33)" />
      <path
         id="path72"
         d="m 0,0 c -3.024,23.776 -6.744,47.098 -10.927,68.38 -6.298,-1.699 -12.628,-3.441 -18.927,-4.951 3.311,-22.279 17.524,-102.19 17.524,-102.19 0.443,-6.08 -2.87,-11.724 -8.018,-13.638 l -16.573,-5.589 c -4.906,-1.831 -8.877,1.982 -11.592,6.909 -3.135,5.657 -4.342,12.734 -6.009,24.547 -0.28,3.304 -7.366,62.972 -10.08,83.113 -5.753,-1.061 -13.206,-2.342 -18.79,-3.157 2.647,-24.749 7.038,-57.845 10.188,-85.117 0,0 4.948,-39.581 20.877,-46.46 24.315,-9.374 49.763,7.209 55.872,16.735 6.097,9.506 -3.52,61.415 -3.52,61.415 z"
         style="opacity:0.99;fill:#ff0000;fill-opacity:1;fill-rule:nonzero;stroke:none"
         transform="matrix(2.0754469,0,0,-2.0601742,989.54817,656.72773)"
         clip-path="url(#clipPath33)" />
      <path
         id="path73"
         d="m 0,0 c -0.903,3.807 -2.026,7.102 -5.905,8.712 -2.806,1.171 -6.003,0.927 -8.907,0.317 -11.519,-2.44 -20.596,-10.249 -30.773,-15.545 -5.002,-3.318 -15.471,-8.614 -16.228,7.736 1.245,17.057 8.883,20.23 14.813,22.304 10.566,3.661 29.356,9.762 41.363,-3.562 -0.268,5.49 -4.124,22.28 -7.419,30.503 L -53.663,36.434 c -9.37,-3.075 -16.959,-10.787 -20.839,-19.743 -2.344,-5.441 -3.222,-11.517 -3.515,-17.399 0,-0.122 -0.024,-0.244 0,-0.391 -0.121,-3.611 0.538,-8.297 2.026,-12.714 v -0.048 c 1.83,-5.442 4.881,-10.493 9.176,-12.641 8.931,-4.466 19.839,0.391 27.868,4.686 5.49,2.928 13.568,9.688 20.352,7.784 3.343,-0.927 4.417,-4.367 4.661,-7.491 0.536,-6.54 -5.027,-12.788 -9.029,-17.278 -7.687,-8.638 -16.985,-14.007 -26.868,-19.669 -4.783,-2.757 -9.444,-5.71 -13.982,-8.858 -0.366,-0.269 -2.563,-1.513 -4.027,-2.587 1.44,-13.323 1.976,-26.916 -0.488,-34.407 8.296,6.564 16.325,13.494 24.232,20.547 15.52,13.763 33.993,29.844 41.022,50.368 3.805,11.151 5.831,21.23 3.196,32.821 C 0.098,-0.391 0.049,-0.195 0,0"
         style="opacity:0.99;fill:#000000;fill-opacity:1;fill-rule:nonzero;stroke:none;filter:url(#filter83)"
         transform="matrix(2.0754469,0,0,-2.0601742,1154.4043,570.16827)"
         clip-path="url(#clipPath35)" />
      <path
         id="path74"
         d="m 0,0 c -0.903,3.807 -2.026,7.102 -5.905,8.712 -2.806,1.171 -6.003,0.927 -8.907,0.317 -11.519,-2.44 -20.596,-10.249 -30.773,-15.545 -5.002,-3.318 -15.471,-8.614 -16.228,7.736 1.245,17.057 8.883,20.23 14.813,22.304 10.566,3.661 29.356,9.762 41.363,-3.562 -0.268,5.49 -4.124,22.28 -7.419,30.503 L -53.663,36.434 c -9.37,-3.075 -16.959,-10.787 -20.839,-19.743 -2.344,-5.441 -3.222,-11.517 -3.515,-17.399 0,-0.122 -0.024,-0.244 0,-0.391 -0.121,-3.611 0.538,-8.297 2.026,-12.714 v -0.048 c 1.83,-5.442 4.881,-10.493 9.176,-12.641 8.931,-4.466 19.839,0.391 27.868,4.686 5.49,2.928 13.568,9.688 20.352,7.784 3.343,-0.927 4.417,-4.367 4.661,-7.491 0.536,-6.54 -5.027,-12.788 -9.029,-17.278 -7.687,-8.638 -16.985,-14.007 -26.868,-19.669 -4.783,-2.757 -9.444,-5.71 -13.982,-8.858 -0.366,-0.269 -2.563,-1.513 -4.027,-2.587 1.44,-13.323 1.976,-26.916 -0.488,-34.407 8.296,6.564 16.325,13.494 24.232,20.547 15.52,13.763 33.993,29.844 41.022,50.368 3.805,11.151 5.831,21.23 3.196,32.821 C 0.098,-0.391 0.049,-0.195 0,0"
         style="opacity:0.99;fill:#ff0000;fill-opacity:1;fill-rule:nonzero;stroke:none"
         transform="matrix(2.0754469,0,0,-2.0601742,1154.4043,570.16827)"
         clip-path="url(#clipPath35)" />
      <path
         id="path75"
         d="m 0,0 c -7.468,4.759 -13.104,11.738 -19.425,17.985 0,0 0.269,0.048 0.733,0.195 2.928,0.805 12.958,4.417 22.06,7.492 0.487,-1.415 0.683,-3.1 1.049,-4.417 C 5.296,17.888 11.933,2.611 12.152,-6.003 7.931,-4.417 3.832,-2.465 0,0 m -46.809,86.922 c 9.429,-2.115 23.235,-0.918 37.804,0.855 1.806,-4.954 3.222,-13.495 3.027,-20.01 0,-3.783 -1.611,-7.296 -4.345,-9.59 -4.978,-4.173 -14.006,-10.615 -26.012,-14.715 -3.467,10.469 -8.473,35.065 -10.474,43.46 M 26.696,11.348 c -0.268,1.952 -0.61,3.855 -0.975,5.758 v 0.074 c -1.123,5.734 -2.685,11.225 -4.612,16.349 -0.048,0.074 -0.073,0.147 -0.097,0.22 -2.173,5.735 -6.931,8.956 -12.544,8.565 L -8.15,41.217 1.83,46.634 c 7.688,4.173 13.056,13.348 13.228,22.353 l 0.072,3.636 c 0.17,9.078 -1.196,17.668 -4.27,25.013 -0.026,0.122 -0.073,0.244 -0.147,0.366 -1.195,2.782 -3.099,4.93 -5.417,6.271 -0.342,0.22 -0.684,0.391 -1.049,0.562 -15.252,-1.537 -33.599,-3.091 -54.515,-3.091 -6.906,-0.39 -13.411,-0.268 -19.464,0 l 0.074,-1.391 c 1.83,-38.508 11.677,-75.243 26.684,-91.543 7.249,-8.248 16.668,-16.131 27.186,-22.183 10.127,-5.783 22.792,-10.566 36.481,-13.47 1.197,0.488 2.222,1.025 2.953,1.611 3.734,2.976 4.808,8.882 4.881,14.91 0.098,4.734 -0.439,9.565 -0.804,13.104 -0.245,2.489 -0.587,5.295 -1.027,8.566"
         style="opacity:0.99;fill:#000000;fill-opacity:1;fill-rule:nonzero;stroke:none;filter:url(#filter82)"
         transform="matrix(2.0754469,0,0,-2.0601742,772.37319,768.90257)"
         clip-path="url(#clipPath37)" />
      <path
         id="path76"
         d="m 0,0 c -7.468,4.759 -13.104,11.738 -19.425,17.985 0,0 0.269,0.048 0.733,0.195 2.928,0.805 12.958,4.417 22.06,7.492 0.487,-1.415 0.683,-3.1 1.049,-4.417 C 5.296,17.888 11.933,2.611 12.152,-6.003 7.931,-4.417 3.832,-2.465 0,0 m -46.809,86.922 c 9.429,-2.115 23.235,-0.918 37.804,0.855 1.806,-4.954 3.222,-13.495 3.027,-20.01 0,-3.783 -1.611,-7.296 -4.345,-9.59 -4.978,-4.173 -14.006,-10.615 -26.012,-14.715 -3.467,10.469 -8.473,35.065 -10.474,43.46 M 26.696,11.348 c -0.268,1.952 -0.61,3.855 -0.975,5.758 v 0.074 c -1.123,5.734 -2.685,11.225 -4.612,16.349 -0.048,0.074 -0.073,0.147 -0.097,0.22 -2.173,5.735 -6.931,8.956 -12.544,8.565 L -8.15,41.217 1.83,46.634 c 7.688,4.173 13.056,13.348 13.228,22.353 l 0.072,3.636 c 0.17,9.078 -1.196,17.668 -4.27,25.013 -0.026,0.122 -0.073,0.244 -0.147,0.366 -1.195,2.782 -3.099,4.93 -5.417,6.271 -0.342,0.22 -0.684,0.391 -1.049,0.562 -15.252,-1.537 -33.599,-3.091 -54.515,-3.091 -6.906,-0.39 -13.411,-0.268 -19.464,0 l 0.074,-1.391 c 1.83,-38.508 11.677,-75.243 26.684,-91.543 7.249,-8.248 16.668,-16.131 27.186,-22.183 10.127,-5.783 22.792,-10.566 36.481,-13.47 1.197,0.488 2.222,1.025 2.953,1.611 3.734,2.976 4.808,8.882 4.881,14.91 0.098,4.734 -0.439,9.565 -0.804,13.104 -0.245,2.489 -0.587,5.295 -1.027,8.566"
         style="opacity:0.99;fill:#ff0000;fill-opacity:1;fill-rule:nonzero;stroke:none"
         transform="matrix(2.0754469,0,0,-2.0601742,772.37319,768.90257)"
         clip-path="url(#clipPath37)" />
      <path
         id="path77"
         d="m 0,0 c -2.172,11.665 -6.906,23.061 -10.787,34.262 -0.292,0.854 -0.561,1.586 -0.804,2.245 -2.636,-1.147 -5.321,-2.294 -8.054,-3.417 l -8.15,-3.367 -0.025,0.097 c -0.439,-0.17 -0.853,-0.341 -1.293,-0.512 11.616,-24.403 14.325,-61.862 13.763,-86.728 3.612,-0.342 8.2,-1.415 11.884,-4.368 1.806,-1.44 2.172,-1.928 5.809,-3.563 -0.073,11.713 0.804,23.403 0.488,35.14 C 2.562,-20.108 1.854,-9.956 0,0"
         style="opacity:0.99;fill:#000000;fill-opacity:1;fill-rule:nonzero;stroke:none;filter:url(#filter81)"
         transform="matrix(2.0754469,0,0,-2.0601742,1201.6188,522.31557)"
         clip-path="url(#clipPath39)" />
      <path
         id="path78"
         d="m 0,0 c -2.172,11.665 -6.906,23.061 -10.787,34.262 -0.292,0.854 -0.561,1.586 -0.804,2.245 -2.636,-1.147 -5.321,-2.294 -8.054,-3.417 l -8.15,-3.367 -0.025,0.097 c -0.439,-0.17 -0.853,-0.341 -1.293,-0.512 11.616,-24.403 14.325,-61.862 13.763,-86.728 3.612,-0.342 8.2,-1.415 11.884,-4.368 1.806,-1.44 2.172,-1.928 5.809,-3.563 -0.073,11.713 0.804,23.403 0.488,35.14 C 2.562,-20.108 1.854,-9.956 0,0"
         style="opacity:0.99;fill:#ff0000;fill-opacity:1;fill-rule:nonzero;stroke:none"
         transform="matrix(2.0754469,0,0,-2.0601742,1201.6188,522.31557)"
         clip-path="url(#clipPath39)" />
      <path
         id="path79"
         d="m 0,0 c -0.024,0.024 -0.024,0.049 -0.024,0.049 -8.126,14.641 10.761,29.722 10.761,29.722 0,0 1.733,7.224 -0.414,23.378 -0.025,0.196 -0.025,0.391 -0.074,0.586 -0.049,0.513 -0.122,1.074 -0.22,1.611 0,0 -0.049,-0.025 -0.072,-0.025 -2.782,21.866 -9.762,42.511 -11.811,48.294 -6.663,-1.952 -14.251,-4.783 -21.036,-8.712 l 0.635,-2.147 c 2.587,-6.492 8.81,-24.452 10.078,-49.758 0.489,-9.517 -5.742,-39.936 -5.742,-39.936 -0.021,0.015 -3.58,3.185 -4.19,3.625 -2.562,1.927 -5.198,4.001 -7.857,6.271 -0.098,0.073 -0.221,0.171 -0.318,0.269 -13.494,11.566 -27.673,27.965 -38.825,50.904 -5.271,-2.709 -10.884,-5.418 -16.838,-8.102 0.684,-1.488 1.684,-3.563 3.051,-6.15 0.463,-1.317 0.927,-2.61 1.39,-3.928 3.246,-8.908 6.589,-18.132 8.371,-27.746 1.683,-9.005 2.611,-18.962 2.952,-31.334 0.171,-6.735 -0.024,-13.471 -0.219,-19.986 -0.147,-5.027 -0.293,-10.249 -0.268,-15.301 l 0.024,-2.928 c 8.125,-4.051 15.813,-3.758 15.813,-3.758 3.929,19.108 1.854,50.978 0.732,64.278 13.299,-14.328 30.877,-28.506 53.182,-37.379 11.916,-4.739 25.649,-1.053 33.029,9.435 0.472,0.671 0.712,1.076 0.712,1.076 -7.59,0.537 -13.519,2.196 -18.106,4.295 C 3.563,-8.321 0.269,-0.659 0,0"
         style="opacity:0.99;fill:#000000;fill-opacity:1;fill-rule:nonzero;stroke:none;filter:url(#filter80)"
         transform="matrix(2.0754469,0,0,-2.0601742,1368.3476,557.10512)"
         clip-path="url(#clipPath41)" />
      <path
         id="path80"
         d="m 0,0 c -0.024,0.024 -0.024,0.049 -0.024,0.049 -8.126,14.641 10.761,29.722 10.761,29.722 0,0 1.733,7.224 -0.414,23.378 -0.025,0.196 -0.025,0.391 -0.074,0.586 -0.049,0.513 -0.122,1.074 -0.22,1.611 0,0 -0.049,-0.025 -0.072,-0.025 -2.782,21.866 -9.762,42.511 -11.811,48.294 -6.663,-1.952 -14.251,-4.783 -21.036,-8.712 l 0.635,-2.147 c 2.587,-6.492 8.81,-24.452 10.078,-49.758 0.489,-9.517 -5.742,-39.936 -5.742,-39.936 -0.021,0.015 -3.58,3.185 -4.19,3.625 -2.562,1.927 -5.198,4.001 -7.857,6.271 -0.098,0.073 -0.221,0.171 -0.318,0.269 -13.494,11.566 -27.673,27.965 -38.825,50.904 -5.271,-2.709 -10.884,-5.418 -16.838,-8.102 0.684,-1.488 1.684,-3.563 3.051,-6.15 0.463,-1.317 0.927,-2.61 1.39,-3.928 3.246,-8.908 6.589,-18.132 8.371,-27.746 1.683,-9.005 2.611,-18.962 2.952,-31.334 0.171,-6.735 -0.024,-13.471 -0.219,-19.986 -0.147,-5.027 -0.293,-10.249 -0.268,-15.301 l 0.024,-2.928 c 8.125,-4.051 15.813,-3.758 15.813,-3.758 3.929,19.108 1.854,50.978 0.732,64.278 13.299,-14.328 30.877,-28.506 53.182,-37.379 11.916,-4.739 25.649,-1.053 33.029,9.435 0.472,0.671 0.712,1.076 0.712,1.076 -7.59,0.537 -13.519,2.196 -18.106,4.295 C 3.563,-8.321 0.269,-0.659 0,0"
         style="opacity:0.99;fill:#ff0000;fill-opacity:1;fill-rule:nonzero;stroke:none"
         transform="matrix(2.0754469,0,0,-2.0601742,1368.3476,557.10512)"
         clip-path="url(#clipPath41)" />
    </g>
  </g>
</svg>
